<svg width="594" height="905" viewBox="0 0 594 905" fill="none" xmlns="http://www.w3.org/2000/svg">
<path d="M513.694 773.927C461.828 613.157 433.62 525.505 386.075 378.131C391.08 376.315 396.312 374.498 402.454 372.227C305.545 59.3147 208.409 -253.598 111.5 -566.511C66.4575 -547.663 44.1637 -537.672 0.48645 -516.781C106.04 -226.576 211.593 63.6292 316.919 353.834C379.933 527.094 411.326 613.838 474.34 787.098C487.079 782.557 494.814 780.058 505.733 776.652C500.728 778.242 496.406 779.604 490.036 781.875C524.614 881.562 559.192 981.476 593.997 1081.16V1021.67L514.15 774.154C514.15 774.154 514.15 774.154 513.922 774.154L513.694 773.927Z" fill="url(#paint0_linear_1_1046)"/>
<defs>
<linearGradient id="paint0_linear_1_1046" x1="297.242" y1="-566.511" x2="297.242" y2="1081.16" gradientUnits="userSpaceOnUse">
<stop stop-color="#0FC97E"/>
<stop offset="1" stop-color="#3064E9"/>
</linearGradient>
</defs>
</svg>
