<svg width="177" height="32" viewBox="0 0 177 32" fill="none" xmlns="http://www.w3.org/2000/svg">
<mask id="path-1-outside-1_1_4" maskUnits="userSpaceOnUse" x="-1" y="-1" width="179" height="34" fill="black">
<rect fill="white" x="-1" y="-1" width="179" height="34"/>
<path d="M20.294 31C20.014 31 19.832 30.86 19.748 30.58L18.362 26.086C18.306 25.974 18.236 25.918 18.152 25.918H7.064C6.98 25.918 6.91 25.974 6.854 26.086L5.468 30.58C5.384 30.86 5.202 31 4.922 31H0.722C0.554 31 0.428 30.958 0.344 30.874C0.26 30.762 0.246 30.608 0.302 30.412L9.416 2.02C9.5 1.74 9.682 1.6 9.962 1.6H15.212C15.492 1.6 15.674 1.74 15.758 2.02L24.914 30.412C24.942 30.468 24.956 30.538 24.956 30.622C24.956 30.874 24.802 31 24.494 31H20.294ZM8.156 21.844C8.128 22.012 8.184 22.096 8.324 22.096H16.85C17.018 22.096 17.074 22.012 17.018 21.844L12.692 7.774C12.664 7.662 12.622 7.606 12.566 7.606C12.51 7.606 12.468 7.662 12.44 7.774L8.156 21.844ZM38.8344 9.286C39.7304 9.286 40.5144 9.468 41.1864 9.832C41.4104 9.944 41.4944 10.154 41.4384 10.462L40.7244 14.242C40.6964 14.578 40.5004 14.676 40.1364 14.536C39.7164 14.396 39.2264 14.326 38.6664 14.326C38.3024 14.326 38.0224 14.34 37.8264 14.368C36.6504 14.424 35.6704 14.844 34.8864 15.628C34.1024 16.384 33.7104 17.378 33.7104 18.61V30.496C33.7104 30.636 33.6544 30.762 33.5424 30.874C33.4584 30.958 33.3464 31 33.2064 31H29.3424C29.2024 31 29.0764 30.958 28.9644 30.874C28.8804 30.762 28.8384 30.636 28.8384 30.496V10.042C28.8384 9.902 28.8804 9.79 28.9644 9.706C29.0764 9.594 29.2024 9.538 29.3424 9.538H33.2064C33.3464 9.538 33.4584 9.594 33.5424 9.706C33.6544 9.79 33.7104 9.902 33.7104 10.042V11.932C33.7104 12.044 33.7244 12.114 33.7524 12.142C33.8084 12.142 33.8644 12.1 33.9204 12.016C35.0964 10.196 36.7344 9.286 38.8344 9.286ZM53.1652 31.336C51.0092 31.336 49.1472 30.79 47.5792 29.698C46.0112 28.578 44.9192 27.08 44.3032 25.204C43.8552 23.944 43.6312 22.264 43.6312 20.164C43.6312 18.148 43.8552 16.496 44.3032 15.208C44.8912 13.36 45.9692 11.904 47.5372 10.84C49.1332 9.748 51.0092 9.202 53.1652 9.202C55.3492 9.202 57.2532 9.748 58.8772 10.84C60.5012 11.932 61.5792 13.304 62.1112 14.956C62.2512 15.404 62.3492 15.852 62.4052 16.3V16.384C62.4052 16.664 62.2512 16.832 61.9432 16.888L58.1632 17.434H58.0792C57.8272 17.434 57.6592 17.294 57.5752 17.014C57.5752 16.874 57.5612 16.762 57.5332 16.678C57.4772 16.454 57.4212 16.258 57.3652 16.09C57.1132 15.306 56.6092 14.662 55.8532 14.158C55.0972 13.654 54.2012 13.402 53.1652 13.402C52.1012 13.402 51.1912 13.682 50.4352 14.242C49.7072 14.774 49.2172 15.516 48.9652 16.468C48.6852 17.364 48.5452 18.61 48.5452 20.206C48.5452 21.746 48.6712 22.992 48.9232 23.944C49.2032 24.924 49.7072 25.708 50.4352 26.296C51.1632 26.856 52.0732 27.136 53.1652 27.136C54.2292 27.136 55.1392 26.87 55.8952 26.338C56.6792 25.778 57.1832 25.036 57.4072 24.112C57.4352 24.056 57.4492 23.986 57.4492 23.902C57.4772 23.874 57.4912 23.832 57.4912 23.776C57.5752 23.44 57.7712 23.3 58.0792 23.356L61.8592 23.944C61.9992 23.972 62.1112 24.042 62.1952 24.154C62.3072 24.238 62.3492 24.364 62.3212 24.532C62.2372 24.98 62.1672 25.302 62.1112 25.498C61.5792 27.29 60.5012 28.718 58.8772 29.782C57.2532 30.818 55.3492 31.336 53.1652 31.336ZM76.8217 9.202C79.0897 9.202 80.8957 9.874 82.2397 11.218C83.6117 12.562 84.2977 14.396 84.2977 16.72V30.496C84.2977 30.636 84.2417 30.762 84.1297 30.874C84.0457 30.958 83.9337 31 83.7937 31H79.9297C79.7897 31 79.6637 30.958 79.5517 30.874C79.4677 30.762 79.4257 30.636 79.4257 30.496V17.728C79.4257 16.44 79.0617 15.404 78.3337 14.62C77.6057 13.808 76.6397 13.402 75.4357 13.402C74.2317 13.402 73.2517 13.794 72.4957 14.578C71.7677 15.362 71.4037 16.398 71.4037 17.686V30.496C71.4037 30.636 71.3477 30.762 71.2357 30.874C71.1517 30.958 71.0397 31 70.8997 31H67.0357C66.8957 31 66.7697 30.958 66.6577 30.874C66.5737 30.762 66.5317 30.636 66.5317 30.496V2.104C66.5317 1.964 66.5737 1.852 66.6577 1.768C66.7697 1.656 66.8957 1.6 67.0357 1.6H70.8997C71.0397 1.6 71.1517 1.656 71.2357 1.768C71.3477 1.852 71.4037 1.964 71.4037 2.104V11.386C71.4037 11.47 71.4317 11.526 71.4877 11.554C71.5437 11.582 71.5857 11.554 71.6137 11.47C72.7617 9.958 74.4977 9.202 76.8217 9.202ZM92.1494 6.598C91.2814 6.598 90.5674 6.318 90.0074 5.758C89.4474 5.198 89.1674 4.484 89.1674 3.616C89.1674 2.748 89.4474 2.034 90.0074 1.474C90.5674 0.913998 91.2814 0.633998 92.1494 0.633998C93.0174 0.633998 93.7314 0.913998 94.2914 1.474C94.8514 2.034 95.1314 2.748 95.1314 3.616C95.1314 4.484 94.8514 5.198 94.2914 5.758C93.7314 6.318 93.0174 6.598 92.1494 6.598ZM90.1334 31C89.9934 31 89.8674 30.958 89.7554 30.874C89.6714 30.762 89.6294 30.636 89.6294 30.496V10C89.6294 9.86 89.6714 9.748 89.7554 9.664C89.8674 9.552 89.9934 9.496 90.1334 9.496H93.9974C94.1374 9.496 94.2494 9.552 94.3334 9.664C94.4454 9.748 94.5014 9.86 94.5014 10V30.496C94.5014 30.636 94.4454 30.762 94.3334 30.874C94.2494 30.958 94.1374 31 93.9974 31H90.1334ZM106.803 31C106.495 31 106.299 30.86 106.215 30.58L98.5705 2.146L98.5285 1.978C98.5285 1.726 98.6825 1.6 98.9905 1.6H103.107C103.415 1.6 103.611 1.74 103.695 2.02L108.483 21.172C108.511 21.256 108.553 21.298 108.609 21.298C108.665 21.298 108.707 21.256 108.735 21.172L113.313 2.02C113.397 1.74 113.579 1.6 113.859 1.6H117.891C118.199 1.6 118.395 1.74 118.479 2.02L123.351 21.214C123.379 21.298 123.421 21.34 123.477 21.34C123.533 21.34 123.575 21.298 123.603 21.214L128.307 2.02C128.391 1.74 128.587 1.6 128.895 1.6H132.801C133.193 1.6 133.347 1.782 133.263 2.146L125.997 30.58C125.913 30.86 125.717 31 125.409 31H121.503C121.195 31 120.999 30.86 120.915 30.58L116.001 10.546C115.973 10.462 115.931 10.42 115.875 10.42C115.819 10.392 115.777 10.434 115.749 10.546L111.045 30.58C110.961 30.86 110.779 31 110.499 31H106.803ZM152.679 17.854C152.791 18.554 152.847 19.338 152.847 20.206L152.805 21.508C152.805 21.844 152.637 22.012 152.301 22.012H139.155C139.015 22.012 138.945 22.082 138.945 22.222C139.029 23.146 139.155 23.776 139.323 24.112C139.995 26.128 141.633 27.15 144.237 27.178C146.141 27.178 147.653 26.394 148.773 24.826C148.885 24.658 149.025 24.574 149.193 24.574C149.305 24.574 149.403 24.616 149.487 24.7L152.091 26.842C152.343 27.038 152.385 27.262 152.217 27.514C151.349 28.746 150.187 29.698 148.731 30.37C147.303 31.042 145.707 31.378 143.943 31.378C141.759 31.378 139.897 30.888 138.357 29.908C136.845 28.928 135.739 27.556 135.039 25.792C134.395 24.28 134.073 22.18 134.073 19.492C134.073 17.868 134.241 16.552 134.577 15.544C135.137 13.584 136.187 12.044 137.727 10.924C139.295 9.776 141.171 9.202 143.355 9.202C148.871 9.202 151.979 12.086 152.679 17.854ZM143.355 13.402C142.319 13.402 141.451 13.668 140.751 14.2C140.079 14.704 139.603 15.418 139.323 16.342C139.155 16.818 139.043 17.434 138.987 18.19C138.931 18.33 138.987 18.4 139.155 18.4H147.681C147.821 18.4 147.891 18.33 147.891 18.19C147.835 17.49 147.751 16.958 147.639 16.594C147.387 15.586 146.883 14.802 146.127 14.242C145.399 13.682 144.475 13.402 143.355 13.402ZM175.401 15.082C175.877 16.65 176.115 18.358 176.115 20.206C176.115 22.194 175.849 23.944 175.317 25.456C174.701 27.304 173.707 28.746 172.335 29.782C170.963 30.818 169.283 31.336 167.295 31.336C165.335 31.336 163.725 30.594 162.465 29.11C162.409 29.026 162.353 28.998 162.297 29.026C162.241 29.054 162.213 29.11 162.213 29.194V30.496C162.213 30.636 162.157 30.762 162.045 30.874C161.961 30.958 161.849 31 161.709 31H157.845C157.705 31 157.579 30.958 157.467 30.874C157.383 30.762 157.341 30.636 157.341 30.496V2.104C157.341 1.964 157.383 1.852 157.467 1.768C157.579 1.656 157.705 1.6 157.845 1.6H161.709C161.849 1.6 161.961 1.656 162.045 1.768C162.157 1.852 162.213 1.964 162.213 2.104V11.218C162.213 11.302 162.241 11.358 162.297 11.386C162.353 11.414 162.409 11.4 162.465 11.344C163.669 9.916 165.265 9.202 167.253 9.202C169.325 9.202 171.033 9.72 172.377 10.756C173.749 11.792 174.757 13.234 175.401 15.082ZM170.109 25.12C170.781 23.944 171.117 22.334 171.117 20.29C171.117 18.106 170.697 16.398 169.857 15.166C169.101 13.99 167.981 13.402 166.497 13.402C165.125 13.402 164.075 14.018 163.347 15.25C162.647 16.398 162.297 18.064 162.297 20.248C162.297 22.404 162.619 24.028 163.263 25.12C163.991 26.464 165.083 27.136 166.539 27.136C167.323 27.136 168.023 26.968 168.639 26.632C169.255 26.268 169.745 25.764 170.109 25.12Z"/>
</mask>
<path d="M20.294 31C20.014 31 19.832 30.86 19.748 30.58L18.362 26.086C18.306 25.974 18.236 25.918 18.152 25.918H7.064C6.98 25.918 6.91 25.974 6.854 26.086L5.468 30.58C5.384 30.86 5.202 31 4.922 31H0.722C0.554 31 0.428 30.958 0.344 30.874C0.26 30.762 0.246 30.608 0.302 30.412L9.416 2.02C9.5 1.74 9.682 1.6 9.962 1.6H15.212C15.492 1.6 15.674 1.74 15.758 2.02L24.914 30.412C24.942 30.468 24.956 30.538 24.956 30.622C24.956 30.874 24.802 31 24.494 31H20.294ZM8.156 21.844C8.128 22.012 8.184 22.096 8.324 22.096H16.85C17.018 22.096 17.074 22.012 17.018 21.844L12.692 7.774C12.664 7.662 12.622 7.606 12.566 7.606C12.51 7.606 12.468 7.662 12.44 7.774L8.156 21.844ZM38.8344 9.286C39.7304 9.286 40.5144 9.468 41.1864 9.832C41.4104 9.944 41.4944 10.154 41.4384 10.462L40.7244 14.242C40.6964 14.578 40.5004 14.676 40.1364 14.536C39.7164 14.396 39.2264 14.326 38.6664 14.326C38.3024 14.326 38.0224 14.34 37.8264 14.368C36.6504 14.424 35.6704 14.844 34.8864 15.628C34.1024 16.384 33.7104 17.378 33.7104 18.61V30.496C33.7104 30.636 33.6544 30.762 33.5424 30.874C33.4584 30.958 33.3464 31 33.2064 31H29.3424C29.2024 31 29.0764 30.958 28.9644 30.874C28.8804 30.762 28.8384 30.636 28.8384 30.496V10.042C28.8384 9.902 28.8804 9.79 28.9644 9.706C29.0764 9.594 29.2024 9.538 29.3424 9.538H33.2064C33.3464 9.538 33.4584 9.594 33.5424 9.706C33.6544 9.79 33.7104 9.902 33.7104 10.042V11.932C33.7104 12.044 33.7244 12.114 33.7524 12.142C33.8084 12.142 33.8644 12.1 33.9204 12.016C35.0964 10.196 36.7344 9.286 38.8344 9.286ZM53.1652 31.336C51.0092 31.336 49.1472 30.79 47.5792 29.698C46.0112 28.578 44.9192 27.08 44.3032 25.204C43.8552 23.944 43.6312 22.264 43.6312 20.164C43.6312 18.148 43.8552 16.496 44.3032 15.208C44.8912 13.36 45.9692 11.904 47.5372 10.84C49.1332 9.748 51.0092 9.202 53.1652 9.202C55.3492 9.202 57.2532 9.748 58.8772 10.84C60.5012 11.932 61.5792 13.304 62.1112 14.956C62.2512 15.404 62.3492 15.852 62.4052 16.3V16.384C62.4052 16.664 62.2512 16.832 61.9432 16.888L58.1632 17.434H58.0792C57.8272 17.434 57.6592 17.294 57.5752 17.014C57.5752 16.874 57.5612 16.762 57.5332 16.678C57.4772 16.454 57.4212 16.258 57.3652 16.09C57.1132 15.306 56.6092 14.662 55.8532 14.158C55.0972 13.654 54.2012 13.402 53.1652 13.402C52.1012 13.402 51.1912 13.682 50.4352 14.242C49.7072 14.774 49.2172 15.516 48.9652 16.468C48.6852 17.364 48.5452 18.61 48.5452 20.206C48.5452 21.746 48.6712 22.992 48.9232 23.944C49.2032 24.924 49.7072 25.708 50.4352 26.296C51.1632 26.856 52.0732 27.136 53.1652 27.136C54.2292 27.136 55.1392 26.87 55.8952 26.338C56.6792 25.778 57.1832 25.036 57.4072 24.112C57.4352 24.056 57.4492 23.986 57.4492 23.902C57.4772 23.874 57.4912 23.832 57.4912 23.776C57.5752 23.44 57.7712 23.3 58.0792 23.356L61.8592 23.944C61.9992 23.972 62.1112 24.042 62.1952 24.154C62.3072 24.238 62.3492 24.364 62.3212 24.532C62.2372 24.98 62.1672 25.302 62.1112 25.498C61.5792 27.29 60.5012 28.718 58.8772 29.782C57.2532 30.818 55.3492 31.336 53.1652 31.336ZM76.8217 9.202C79.0897 9.202 80.8957 9.874 82.2397 11.218C83.6117 12.562 84.2977 14.396 84.2977 16.72V30.496C84.2977 30.636 84.2417 30.762 84.1297 30.874C84.0457 30.958 83.9337 31 83.7937 31H79.9297C79.7897 31 79.6637 30.958 79.5517 30.874C79.4677 30.762 79.4257 30.636 79.4257 30.496V17.728C79.4257 16.44 79.0617 15.404 78.3337 14.62C77.6057 13.808 76.6397 13.402 75.4357 13.402C74.2317 13.402 73.2517 13.794 72.4957 14.578C71.7677 15.362 71.4037 16.398 71.4037 17.686V30.496C71.4037 30.636 71.3477 30.762 71.2357 30.874C71.1517 30.958 71.0397 31 70.8997 31H67.0357C66.8957 31 66.7697 30.958 66.6577 30.874C66.5737 30.762 66.5317 30.636 66.5317 30.496V2.104C66.5317 1.964 66.5737 1.852 66.6577 1.768C66.7697 1.656 66.8957 1.6 67.0357 1.6H70.8997C71.0397 1.6 71.1517 1.656 71.2357 1.768C71.3477 1.852 71.4037 1.964 71.4037 2.104V11.386C71.4037 11.47 71.4317 11.526 71.4877 11.554C71.5437 11.582 71.5857 11.554 71.6137 11.47C72.7617 9.958 74.4977 9.202 76.8217 9.202ZM92.1494 6.598C91.2814 6.598 90.5674 6.318 90.0074 5.758C89.4474 5.198 89.1674 4.484 89.1674 3.616C89.1674 2.748 89.4474 2.034 90.0074 1.474C90.5674 0.913998 91.2814 0.633998 92.1494 0.633998C93.0174 0.633998 93.7314 0.913998 94.2914 1.474C94.8514 2.034 95.1314 2.748 95.1314 3.616C95.1314 4.484 94.8514 5.198 94.2914 5.758C93.7314 6.318 93.0174 6.598 92.1494 6.598ZM90.1334 31C89.9934 31 89.8674 30.958 89.7554 30.874C89.6714 30.762 89.6294 30.636 89.6294 30.496V10C89.6294 9.86 89.6714 9.748 89.7554 9.664C89.8674 9.552 89.9934 9.496 90.1334 9.496H93.9974C94.1374 9.496 94.2494 9.552 94.3334 9.664C94.4454 9.748 94.5014 9.86 94.5014 10V30.496C94.5014 30.636 94.4454 30.762 94.3334 30.874C94.2494 30.958 94.1374 31 93.9974 31H90.1334ZM106.803 31C106.495 31 106.299 30.86 106.215 30.58L98.5705 2.146L98.5285 1.978C98.5285 1.726 98.6825 1.6 98.9905 1.6H103.107C103.415 1.6 103.611 1.74 103.695 2.02L108.483 21.172C108.511 21.256 108.553 21.298 108.609 21.298C108.665 21.298 108.707 21.256 108.735 21.172L113.313 2.02C113.397 1.74 113.579 1.6 113.859 1.6H117.891C118.199 1.6 118.395 1.74 118.479 2.02L123.351 21.214C123.379 21.298 123.421 21.34 123.477 21.34C123.533 21.34 123.575 21.298 123.603 21.214L128.307 2.02C128.391 1.74 128.587 1.6 128.895 1.6H132.801C133.193 1.6 133.347 1.782 133.263 2.146L125.997 30.58C125.913 30.86 125.717 31 125.409 31H121.503C121.195 31 120.999 30.86 120.915 30.58L116.001 10.546C115.973 10.462 115.931 10.42 115.875 10.42C115.819 10.392 115.777 10.434 115.749 10.546L111.045 30.58C110.961 30.86 110.779 31 110.499 31H106.803ZM152.679 17.854C152.791 18.554 152.847 19.338 152.847 20.206L152.805 21.508C152.805 21.844 152.637 22.012 152.301 22.012H139.155C139.015 22.012 138.945 22.082 138.945 22.222C139.029 23.146 139.155 23.776 139.323 24.112C139.995 26.128 141.633 27.15 144.237 27.178C146.141 27.178 147.653 26.394 148.773 24.826C148.885 24.658 149.025 24.574 149.193 24.574C149.305 24.574 149.403 24.616 149.487 24.7L152.091 26.842C152.343 27.038 152.385 27.262 152.217 27.514C151.349 28.746 150.187 29.698 148.731 30.37C147.303 31.042 145.707 31.378 143.943 31.378C141.759 31.378 139.897 30.888 138.357 29.908C136.845 28.928 135.739 27.556 135.039 25.792C134.395 24.28 134.073 22.18 134.073 19.492C134.073 17.868 134.241 16.552 134.577 15.544C135.137 13.584 136.187 12.044 137.727 10.924C139.295 9.776 141.171 9.202 143.355 9.202C148.871 9.202 151.979 12.086 152.679 17.854ZM143.355 13.402C142.319 13.402 141.451 13.668 140.751 14.2C140.079 14.704 139.603 15.418 139.323 16.342C139.155 16.818 139.043 17.434 138.987 18.19C138.931 18.33 138.987 18.4 139.155 18.4H147.681C147.821 18.4 147.891 18.33 147.891 18.19C147.835 17.49 147.751 16.958 147.639 16.594C147.387 15.586 146.883 14.802 146.127 14.242C145.399 13.682 144.475 13.402 143.355 13.402ZM175.401 15.082C175.877 16.65 176.115 18.358 176.115 20.206C176.115 22.194 175.849 23.944 175.317 25.456C174.701 27.304 173.707 28.746 172.335 29.782C170.963 30.818 169.283 31.336 167.295 31.336C165.335 31.336 163.725 30.594 162.465 29.11C162.409 29.026 162.353 28.998 162.297 29.026C162.241 29.054 162.213 29.11 162.213 29.194V30.496C162.213 30.636 162.157 30.762 162.045 30.874C161.961 30.958 161.849 31 161.709 31H157.845C157.705 31 157.579 30.958 157.467 30.874C157.383 30.762 157.341 30.636 157.341 30.496V2.104C157.341 1.964 157.383 1.852 157.467 1.768C157.579 1.656 157.705 1.6 157.845 1.6H161.709C161.849 1.6 161.961 1.656 162.045 1.768C162.157 1.852 162.213 1.964 162.213 2.104V11.218C162.213 11.302 162.241 11.358 162.297 11.386C162.353 11.414 162.409 11.4 162.465 11.344C163.669 9.916 165.265 9.202 167.253 9.202C169.325 9.202 171.033 9.72 172.377 10.756C173.749 11.792 174.757 13.234 175.401 15.082ZM170.109 25.12C170.781 23.944 171.117 22.334 171.117 20.29C171.117 18.106 170.697 16.398 169.857 15.166C169.101 13.99 167.981 13.402 166.497 13.402C165.125 13.402 164.075 14.018 163.347 15.25C162.647 16.398 162.297 18.064 162.297 20.248C162.297 22.404 162.619 24.028 163.263 25.12C163.991 26.464 165.083 27.136 166.539 27.136C167.323 27.136 168.023 26.968 168.639 26.632C169.255 26.268 169.745 25.764 170.109 25.12Z" fill="#2F2E2E"/>
<path d="M19.748 30.58L20.7059 30.2926L20.7036 30.2853L19.748 30.58ZM18.362 26.086L19.3176 25.7913L19.2933 25.7125L19.2564 25.6388L18.362 26.086ZM6.854 26.086L5.95957 25.6388L5.92271 25.7125L5.89841 25.7913L6.854 26.086ZM5.468 30.58L4.51239 30.2853L4.51017 30.2927L5.468 30.58ZM0.344 30.874L-0.456 31.474L-0.413359 31.5309L-0.363107 31.5811L0.344 30.874ZM0.302 30.412L-0.650146 30.1064L-0.655085 30.1217L-0.659524 30.1373L0.302 30.412ZM9.416 2.02L10.3681 2.32564L10.3711 2.31652L10.3738 2.30735L9.416 2.02ZM15.758 2.02L14.8002 2.30734L14.8031 2.31716L14.8063 2.32692L15.758 2.02ZM24.914 30.412L23.9623 30.7189L23.9856 30.7912L24.0196 30.8592L24.914 30.412ZM8.156 21.844L7.19936 21.5527L7.18034 21.6152L7.16961 21.6796L8.156 21.844ZM17.018 21.844L16.0622 22.1379L16.0656 22.1491L16.0693 22.1602L17.018 21.844ZM12.692 7.774L11.7219 8.01653L11.7283 8.0424L11.7362 8.06788L12.692 7.774ZM12.44 7.774L13.3966 8.06527L13.404 8.04107L13.4101 8.01653L12.44 7.774ZM20.294 30C20.3249 30 20.4377 30.0105 20.5572 30.1024C20.6727 30.1912 20.7041 30.287 20.7058 30.2927L18.7902 30.8673C18.8759 31.153 19.0403 31.4588 19.3378 31.6876C19.6393 31.9195 19.9831 32 20.294 32V30ZM20.7036 30.2853L19.3176 25.7913L17.4064 26.3807L18.7924 30.8747L20.7036 30.2853ZM19.2564 25.6388C19.1241 25.3741 18.7856 24.918 18.152 24.918V26.918C17.9511 26.918 17.7723 26.8445 17.6428 26.7409C17.5293 26.65 17.4803 26.5586 17.4676 26.5332L19.2564 25.6388ZM18.152 24.918H7.064V26.918H18.152V24.918ZM7.064 24.918C6.43037 24.918 6.09192 25.3741 5.95957 25.6388L7.74843 26.5332C7.73574 26.5586 7.68672 26.65 7.5732 26.7409C7.44367 26.8445 7.26492 26.918 7.064 26.918V24.918ZM5.89841 25.7913L4.51241 30.2853L6.42359 30.8747L7.80959 26.3807L5.89841 25.7913ZM4.51017 30.2927C4.51188 30.287 4.54328 30.1912 4.65879 30.1024C4.77826 30.0105 4.89113 30 4.922 30V32C5.23288 32 5.57674 31.9195 5.87821 31.6876C6.17572 31.4588 6.34012 31.153 6.42583 30.8673L4.51017 30.2927ZM4.922 30H0.722V32H4.922V30ZM0.722 30C0.708145 30 0.881427 29.9972 1.05111 30.1669L-0.363107 31.5811C-0.0254271 31.9188 0.399855 32 0.722 32V30ZM1.144 30.274C1.2247 30.3816 1.25841 30.4962 1.26639 30.584C1.27349 30.662 1.25921 30.7018 1.26352 30.6867L-0.659524 30.1373C-0.760437 30.4905 -0.802104 31.0125 -0.456 31.474L1.144 30.274ZM1.25415 30.7176L10.3681 2.32564L8.46385 1.71435L-0.650146 30.1064L1.25415 30.7176ZM10.3738 2.30735C10.3721 2.31304 10.3407 2.40877 10.2252 2.49762C10.1057 2.58952 9.99288 2.6 9.962 2.6V0.599998C9.65113 0.599998 9.30726 0.680474 9.00579 0.912374C8.70828 1.14123 8.54388 1.44695 8.45817 1.73265L10.3738 2.30735ZM9.962 2.6H15.212V0.599998H9.962V2.6ZM15.212 2.6C15.1811 2.6 15.0683 2.58952 14.9488 2.49762C14.8333 2.40877 14.8019 2.31304 14.8002 2.30734L16.7158 1.73265C16.6301 1.44695 16.4657 1.14123 16.1682 0.912373C15.8667 0.680474 15.5229 0.599998 15.212 0.599998V2.6ZM14.8063 2.32692L23.9623 30.7189L25.8657 30.1051L16.7097 1.71308L14.8063 2.32692ZM24.0196 30.8592C23.9586 30.7373 23.956 30.6426 23.956 30.622H25.956C25.956 30.4334 25.9254 30.1987 25.8084 29.9648L24.0196 30.8592ZM23.956 30.622C23.956 30.5851 23.9615 30.5072 24.001 30.4101C24.0431 30.3069 24.1132 30.2085 24.2073 30.1315C24.3838 29.9871 24.5372 30 24.494 30V32C24.7589 32 25.1432 31.9499 25.4737 31.6795C25.8427 31.3776 25.956 30.961 25.956 30.622H23.956ZM24.494 30H20.294V32H24.494V30ZM7.16961 21.6796C7.14058 21.8538 7.10622 22.2296 7.34495 22.5877C7.62503 23.0078 8.06087 23.096 8.324 23.096V21.096C8.44713 21.096 8.78497 21.1422 9.00905 21.4783C9.19178 21.7524 9.14342 22.0022 9.14239 22.0084L7.16961 21.6796ZM8.324 23.096H16.85V21.096H8.324V23.096ZM16.85 23.096C17.0436 23.096 17.5394 23.0536 17.8501 22.5877C18.1436 22.1474 18.0215 21.6922 17.9667 21.5278L16.0693 22.1602C16.062 22.1383 16.039 22.0641 16.039 21.9542C16.039 21.8374 16.0661 21.6581 16.186 21.4783C16.4406 21.0964 16.8244 21.096 16.85 21.096V23.096ZM17.9738 21.5501L13.6478 7.48011L11.7362 8.06788L16.0622 22.1379L17.9738 21.5501ZM13.6621 7.53147C13.6341 7.41938 13.5759 7.22983 13.4395 7.048C13.282 6.83802 12.9869 6.606 12.566 6.606V8.606C12.2011 8.606 11.955 8.40198 11.8395 8.248C11.7451 8.12217 11.7219 8.01662 11.7219 8.01653L13.6621 7.53147ZM12.566 6.606C12.1451 6.606 11.85 6.83802 11.6925 7.048C11.5561 7.22983 11.4979 7.41938 11.4699 7.53147L13.4101 8.01653C13.4101 8.01662 13.3869 8.12217 13.2925 8.248C13.177 8.40198 12.9309 8.606 12.566 8.606V6.606ZM11.4834 7.48272L7.19936 21.5527L9.11264 22.1353L13.3966 8.06527L11.4834 7.48272ZM41.1864 9.832L40.7101 10.7113L40.7245 10.7191L40.7392 10.7264L41.1864 9.832ZM41.4384 10.462L42.421 10.6476L42.4222 10.6409L41.4384 10.462ZM40.7244 14.242L39.7418 14.0564L39.7321 14.1073L39.7278 14.159L40.7244 14.242ZM40.1364 14.536L40.4954 13.6027L40.4742 13.5945L40.4526 13.5873L40.1364 14.536ZM37.8264 14.368L37.8739 15.3669L37.9211 15.3646L37.9678 15.3579L37.8264 14.368ZM34.8864 15.628L35.5805 16.3478L35.5871 16.3415L35.5935 16.3351L34.8864 15.628ZM33.5424 30.874L34.2495 31.5811L34.2495 31.5811L33.5424 30.874ZM28.9644 30.874L28.1644 31.474L28.2501 31.5883L28.3644 31.674L28.9644 30.874ZM28.9644 9.706L28.2573 8.99889L28.2573 8.99889L28.9644 9.706ZM33.5424 9.706L32.7424 10.306L32.8281 10.4203L32.9424 10.506L33.5424 9.706ZM33.7524 12.142L33.0453 12.8491L33.3382 13.142H33.7524V12.142ZM33.9204 12.016L34.7524 12.5707L34.7564 12.5647L34.7603 12.5587L33.9204 12.016ZM38.8344 10.286C39.5928 10.286 40.2077 10.4392 40.7101 10.7113L41.6627 8.95271C40.8211 8.49684 39.868 8.286 38.8344 8.286V10.286ZM40.7392 10.7264C40.705 10.7093 40.6556 10.678 40.6055 10.6256C40.5542 10.572 40.5147 10.5093 40.4889 10.4449C40.4391 10.3205 40.4613 10.2458 40.4545 10.2831L42.4222 10.6409C42.4715 10.3702 42.4796 10.0365 42.3459 9.70211C42.2029 9.34473 41.9393 9.09044 41.6336 8.93757L40.7392 10.7264ZM40.4558 10.2764L39.7418 14.0564L41.707 14.4276L42.421 10.6476L40.4558 10.2764ZM39.7278 14.159C39.7279 14.1585 39.7327 14.0888 39.7833 13.9907C39.8408 13.8792 39.947 13.7541 40.1092 13.6731C40.2612 13.5971 40.3924 13.5947 40.4527 13.5992C40.5096 13.6034 40.5278 13.6151 40.4954 13.6027L39.7774 15.4693C40.0313 15.567 40.5166 15.7054 41.0036 15.4619C41.5586 15.1844 41.6946 14.6413 41.7209 14.325L39.7278 14.159ZM40.4526 13.5873C39.9077 13.4057 39.3067 13.326 38.6664 13.326V15.326C39.146 15.326 39.525 15.3863 39.8201 15.4847L40.4526 13.5873ZM38.6664 13.326C38.2873 13.326 37.9515 13.34 37.685 13.378L37.9678 15.3579C38.0933 15.34 38.3175 15.326 38.6664 15.326V13.326ZM37.7788 13.3691C36.3711 13.4362 35.1507 13.9494 34.1793 14.9209L35.5935 16.3351C36.19 15.7386 36.9296 15.4118 37.8739 15.3669L37.7788 13.3691ZM34.1922 14.9082C33.1864 15.8781 32.7104 17.1455 32.7104 18.61H34.7104C34.7104 17.6105 35.0184 16.8899 35.5805 16.3478L34.1922 14.9082ZM32.7104 18.61V30.496H34.7104V18.61H32.7104ZM32.7104 30.496C32.7104 30.4283 32.7248 30.3562 32.7546 30.2894C32.7832 30.2248 32.8172 30.1849 32.8353 30.1669L34.2495 31.5811C34.5222 31.3084 34.7104 30.9369 34.7104 30.496H32.7104ZM32.8353 30.1669C32.8949 30.1072 32.9675 30.0609 33.0443 30.0322C33.1179 30.0046 33.1765 30 33.2064 30V32C33.5606 32 33.9447 31.8858 34.2495 31.5811L32.8353 30.1669ZM33.2064 30H29.3424V32H33.2064V30ZM29.3424 30C29.374 30 29.4147 30.005 29.4591 30.0198C29.5035 30.0346 29.5391 30.055 29.5644 30.074L28.3644 31.674C28.6495 31.8878 28.986 32 29.3424 32V30ZM29.7644 30.274C29.7834 30.2993 29.8038 30.3349 29.8186 30.3793C29.8333 30.4236 29.8384 30.4644 29.8384 30.496H27.8384C27.8384 30.8524 27.9506 31.1889 28.1644 31.474L29.7644 30.274ZM29.8384 30.496V10.042H27.8384V30.496H29.8384ZM29.8384 10.042C29.8384 10.0719 29.8338 10.1305 29.8062 10.2041C29.7774 10.2808 29.7311 10.3534 29.6715 10.4131L28.2573 8.99889C27.9525 9.30363 27.8384 9.68774 27.8384 10.042H29.8384ZM29.6715 10.4131C29.6534 10.4311 29.6135 10.4651 29.549 10.4938C29.4822 10.5235 29.4101 10.538 29.3424 10.538V8.538C28.9015 8.538 28.53 8.7262 28.2573 8.99889L29.6715 10.4131ZM29.3424 10.538H33.2064V8.538H29.3424V10.538ZM33.2064 10.538C33.1397 10.538 33.0467 10.5237 32.9482 10.4744C32.8496 10.4252 32.7824 10.3594 32.7424 10.306L34.3424 9.106C34.0695 8.74219 33.6611 8.538 33.2064 8.538V10.538ZM32.9424 10.506C32.889 10.466 32.8232 10.3987 32.7739 10.3002C32.7247 10.2017 32.7104 10.1087 32.7104 10.042H34.7104C34.7104 9.58724 34.5062 9.17886 34.1424 8.906L32.9424 10.506ZM32.7104 10.042V11.932H34.7104V10.042H32.7104ZM32.7104 11.932C32.7104 12.0212 32.7153 12.1394 32.7403 12.2646C32.759 12.3583 32.8187 12.6226 33.0453 12.8491L34.4595 11.4349C34.5677 11.5431 34.6246 11.6526 34.6531 11.7192C34.6826 11.7878 34.6956 11.8433 34.7015 11.8724C34.7125 11.9276 34.7104 11.9548 34.7104 11.932H32.7104ZM33.7524 13.142C34.3392 13.142 34.6562 12.7151 34.7524 12.5707L33.0883 11.4613C33.0978 11.447 33.1432 11.3804 33.2364 11.3105C33.3375 11.2346 33.5149 11.142 33.7524 11.142V13.142ZM34.7603 12.5587C35.7592 11.0128 37.0867 10.286 38.8344 10.286V8.286C36.3821 8.286 34.4336 9.37915 33.0805 11.4733L34.7603 12.5587ZM47.5792 29.698L46.998 30.5118L47.0077 30.5186L47.5792 29.698ZM44.3032 25.204L45.2533 24.892L45.2495 24.8805L45.2454 24.869L44.3032 25.204ZM44.3032 15.208L45.2477 15.5365L45.2521 15.5239L45.2562 15.5112L44.3032 15.208ZM47.5372 10.84L48.0987 11.6675L48.1019 11.6653L47.5372 10.84ZM58.8772 10.84L58.3192 11.6698L58.3192 11.6698L58.8772 10.84ZM62.1112 14.956L63.0658 14.6577L63.0631 14.6495L62.1112 14.956ZM62.4052 16.3H63.4052V16.2377L63.3975 16.176L62.4052 16.3ZM61.9432 16.888L62.0862 17.8777L62.1042 17.8751L62.1221 17.8719L61.9432 16.888ZM58.1632 17.434V18.434H58.2351L58.3062 18.4237L58.1632 17.434ZM57.5752 17.014H56.5752V17.1608L56.6174 17.3013L57.5752 17.014ZM57.5332 16.678L56.5631 16.9205L56.5724 16.9578L56.5846 16.9942L57.5332 16.678ZM57.3652 16.09L56.4132 16.396L56.4166 16.4062L57.3652 16.09ZM50.4352 14.242L51.0253 15.0494L51.0305 15.0456L50.4352 14.242ZM48.9652 16.468L49.9197 16.7663L49.9263 16.7452L49.9319 16.7239L48.9652 16.468ZM48.9232 23.944L47.9565 24.1999L47.959 24.2093L47.9617 24.2187L48.9232 23.944ZM50.4352 26.296L49.8069 27.0739L49.8161 27.0814L49.8255 27.0886L50.4352 26.296ZM55.8952 26.338L56.4707 27.1558L56.4765 27.1517L55.8952 26.338ZM57.4072 24.112L56.5128 23.6648L56.4621 23.7662L56.4354 23.8764L57.4072 24.112ZM57.4492 23.902L56.7421 23.1949L56.4492 23.4878V23.902H57.4492ZM57.4912 23.776L56.5211 23.5335L56.4912 23.6529V23.776H57.4912ZM58.0792 23.356L57.9003 24.3399L57.9129 24.3422L57.9255 24.3441L58.0792 23.356ZM61.8592 23.944L62.0554 22.9634L62.0342 22.9592L62.0129 22.9559L61.8592 23.944ZM62.1952 24.154L61.3952 24.754L61.4809 24.8683L61.5952 24.954L62.1952 24.154ZM62.3212 24.532L63.3041 24.7163L63.306 24.7064L63.3076 24.6964L62.3212 24.532ZM62.1112 25.498L63.0699 25.7826L63.0728 25.7727L62.1112 25.498ZM58.8772 29.782L59.4151 30.6251L59.4253 30.6185L58.8772 29.782ZM53.1652 30.336C51.1863 30.336 49.53 29.8379 48.1507 28.8774L47.0077 30.5186C48.7645 31.7421 50.8321 32.336 53.1652 32.336V30.336ZM48.1605 28.8843C46.7702 27.8912 45.8047 26.5711 45.2533 24.892L43.3531 25.516C44.0338 27.5889 45.2522 29.2648 46.998 30.5117L48.1605 28.8843ZM45.2454 24.869C44.8511 23.7599 44.6312 22.2073 44.6312 20.164H42.6312C42.6312 22.3207 42.8594 24.1281 43.361 25.539L45.2454 24.869ZM44.6312 20.164C44.6312 18.2115 44.8496 16.6813 45.2477 15.5365L43.3587 14.8795C42.8609 16.3107 42.6312 18.0845 42.6312 20.164H44.6312ZM45.2562 15.5112C45.7779 13.8715 46.721 12.6024 48.0987 11.6675L46.9757 10.0125C45.2175 11.2056 44.0046 12.8485 43.3503 14.9048L45.2562 15.5112ZM48.1019 11.6653C49.5128 10.7 51.1867 10.202 53.1652 10.202V8.202C50.8318 8.202 48.7537 8.79601 46.9726 10.0147L48.1019 11.6653ZM53.1652 10.202C55.1744 10.202 56.879 10.7014 58.3192 11.6698L59.4352 10.0102C57.6275 8.79459 55.5241 8.202 53.1652 8.202V10.202ZM58.3192 11.6698C59.782 12.6534 60.7049 13.8513 61.1594 15.2625L63.0631 14.6495C62.4536 12.7567 61.2205 11.2106 59.4352 10.0102L58.3192 11.6698ZM61.1568 15.2543C61.2797 15.6477 61.3646 16.0374 61.413 16.424L63.3975 16.176C63.3338 15.6666 63.2228 15.1603 63.0657 14.6577L61.1568 15.2543ZM61.4052 16.3V16.384H63.4052V16.3H61.4052ZM61.4052 16.384C61.4052 16.3338 61.424 16.1846 61.5526 16.0443C61.6694 15.9169 61.7826 15.9008 61.7643 15.9041L62.1221 17.8719C62.4119 17.8192 62.7561 17.6911 63.0269 17.3957C63.3095 17.0874 63.4052 16.7142 63.4052 16.384H61.4052ZM61.8003 15.8983L58.0203 16.4443L58.3062 18.4237L62.0862 17.8777L61.8003 15.8983ZM58.1632 16.434H58.0792V18.434H58.1632V16.434ZM58.0792 16.434C58.1496 16.434 58.2818 16.4586 58.4044 16.5608C58.5142 16.6523 58.5372 16.7406 58.5331 16.7267L56.6174 17.3013C56.6972 17.5674 56.8463 17.8657 57.1241 18.0972C57.4147 18.3394 57.7569 18.434 58.0792 18.434V16.434ZM58.5752 17.014C58.5752 16.8214 58.5577 16.5893 58.4819 16.3618L56.5846 16.9942C56.5785 16.976 56.5753 16.9627 56.5738 16.9558C56.5723 16.9487 56.5721 16.9462 56.5725 16.949C56.5728 16.9518 56.5735 16.9585 56.5742 16.9697C56.5748 16.9809 56.5752 16.9955 56.5752 17.014H58.5752ZM58.5034 16.4355C58.4429 16.1936 58.38 15.972 58.3139 15.7738L56.4166 16.4062C56.4625 16.544 56.5116 16.7144 56.5631 16.9205L58.5034 16.4355ZM58.3173 15.784C57.9889 14.7623 57.3314 13.9416 56.4079 13.3259L55.2985 14.99C55.8871 15.3824 56.2376 15.8497 56.4132 16.396L58.3173 15.784ZM56.4079 13.3259C55.4654 12.6976 54.3701 12.402 53.1652 12.402V14.402C54.0323 14.402 54.729 14.6104 55.2985 14.99L56.4079 13.3259ZM53.1652 12.402C51.9162 12.402 50.7904 12.7344 49.84 13.4384L51.0305 15.0456C51.5921 14.6296 52.2862 14.402 53.1652 14.402V12.402ZM49.8452 13.4346C48.9147 14.1146 48.3034 15.0603 47.9985 16.2121L49.9319 16.7239C50.1311 15.9716 50.4997 15.4334 51.0253 15.0494L49.8452 13.4346ZM48.0108 16.1697C47.6867 17.2066 47.5452 18.5691 47.5452 20.206H49.5452C49.5452 18.6509 49.6837 17.5214 49.9197 16.7663L48.0108 16.1697ZM47.5452 20.206C47.5452 21.7897 47.6737 23.1313 47.9565 24.1999L49.8899 23.6881C49.6688 22.8527 49.5452 21.7023 49.5452 20.206H47.5452ZM47.9617 24.2187C48.293 25.3782 48.9043 26.3449 49.8069 27.0739L51.0636 25.5181C50.5102 25.0711 50.1135 24.4698 49.8848 23.6693L47.9617 24.2187ZM49.8255 27.0886C50.7597 27.8072 51.8958 28.136 53.1652 28.136V26.136C52.2507 26.136 51.5668 25.9048 51.0449 25.5034L49.8255 27.0886ZM53.1652 28.136C54.4031 28.136 55.5217 27.8236 56.4707 27.1558L55.3197 25.5202C54.7567 25.9164 54.0554 26.136 53.1652 26.136V28.136ZM56.4765 27.1517C57.453 26.4542 58.0977 25.5084 58.3791 24.3476L56.4354 23.8764C56.2688 24.5636 55.9055 25.1018 55.314 25.5243L56.4765 27.1517ZM58.3017 24.5592C58.4186 24.3253 58.4492 24.0906 58.4492 23.902H56.4492C56.4492 23.8814 56.4518 23.7867 56.5128 23.6648L58.3017 24.5592ZM58.1563 24.6091C58.438 24.3274 58.4912 23.9861 58.4912 23.776H56.4912C56.4912 23.6779 56.5164 23.4206 56.7421 23.1949L58.1563 24.6091ZM58.4614 24.0185C58.4705 23.982 58.4473 24.115 58.2825 24.2327C58.0999 24.3631 57.9288 24.345 57.9003 24.3399L58.2581 22.3721C57.9216 22.311 57.4986 22.3349 57.12 22.6053C56.7592 22.863 56.596 23.234 56.5211 23.5335L58.4614 24.0185ZM57.9255 24.3441L61.7055 24.9321L62.0129 22.9559L58.2329 22.3679L57.9255 24.3441ZM61.6631 24.9246C61.6244 24.9168 61.5726 24.8995 61.5182 24.8655C61.4636 24.8313 61.4227 24.7906 61.3952 24.754L62.9952 23.554C62.7604 23.2409 62.4313 23.0386 62.0554 22.9634L61.6631 24.9246ZM61.5952 24.954C61.4978 24.8809 61.409 24.7685 61.3621 24.6277C61.319 24.4984 61.3294 24.4003 61.3348 24.3676L63.3076 24.6964C63.3811 24.2557 63.2764 23.7149 62.7952 23.354L61.5952 24.954ZM61.3384 24.3477C61.2549 24.793 61.1919 25.0755 61.1497 25.2233L63.0728 25.7727C63.1425 25.5285 63.2196 25.167 63.3041 24.7163L61.3384 24.3477ZM61.1526 25.2134C60.6907 26.7693 59.7637 28.0057 58.3292 28.9455L59.4253 30.6185C61.2388 29.4303 62.4678 27.8107 63.0699 25.7826L61.1526 25.2134ZM58.3394 28.9389C56.8968 29.8592 55.1849 30.336 53.1652 30.336V32.336C55.5136 32.336 57.6096 31.7768 59.4151 30.6251L58.3394 28.9389ZM82.2397 11.218L81.5326 11.9251L81.54 11.9324L82.2397 11.218ZM84.1297 30.874L84.8368 31.5811L84.8368 31.5811L84.1297 30.874ZM79.5517 30.874L78.7517 31.474L78.8374 31.5883L78.9517 31.674L79.5517 30.874ZM78.3337 14.62L77.5892 15.2875L77.595 15.294L77.6009 15.3005L78.3337 14.62ZM72.4957 14.578L71.7759 13.8839L71.7694 13.8906L71.7629 13.8975L72.4957 14.578ZM71.2357 30.874L71.9428 31.5811L71.9428 31.5811L71.2357 30.874ZM66.6577 30.874L65.8577 31.474L65.9434 31.5883L66.0577 31.674L66.6577 30.874ZM66.6577 1.768L65.9506 1.06089L65.9506 1.06089L66.6577 1.768ZM71.2357 1.768L70.4357 2.368L70.5214 2.48228L70.6357 2.568L71.2357 1.768ZM71.4877 11.554L71.935 10.6596L71.9349 10.6596L71.4877 11.554ZM71.6137 11.47L70.8173 10.8653L70.7173 10.9969L70.6651 11.1538L71.6137 11.47ZM76.8217 10.202C78.8795 10.202 80.4117 10.8042 81.5326 11.9251L82.9468 10.5109C81.3797 8.94378 79.3 8.202 76.8217 8.202V10.202ZM81.54 11.9324C82.6807 13.0498 83.2977 14.6043 83.2977 16.72H85.2977C85.2977 14.1877 84.5428 12.0742 82.9395 10.5036L81.54 11.9324ZM83.2977 16.72V30.496H85.2977V16.72H83.2977ZM83.2977 30.496C83.2977 30.4283 83.3122 30.3562 83.3419 30.2894C83.3706 30.2248 83.4046 30.1849 83.4226 30.1669L84.8368 31.5811C85.1095 31.3084 85.2977 30.9369 85.2977 30.496H83.2977ZM83.4226 30.1669C83.4823 30.1072 83.5549 30.0609 83.6316 30.0322C83.7052 30.0046 83.7639 30 83.7937 30V32C84.148 32 84.5321 31.8858 84.8368 31.5811L83.4226 30.1669ZM83.7937 30H79.9297V32H83.7937V30ZM79.9297 30C79.9614 30 80.0021 30.005 80.0465 30.0198C80.0908 30.0346 80.1264 30.055 80.1517 30.074L78.9517 31.674C79.2368 31.8878 79.5734 32 79.9297 32V30ZM80.3517 30.274C80.3707 30.2993 80.3911 30.3349 80.4059 30.3793C80.4207 30.4236 80.4257 30.4644 80.4257 30.496H78.4257C78.4257 30.8524 78.5379 31.1889 78.7517 31.474L80.3517 30.274ZM80.4257 30.496V17.728H78.4257V30.496H80.4257ZM80.4257 17.728C80.4257 16.242 80 14.9449 79.0665 13.9395L77.6009 15.3005C78.1234 15.8631 78.4257 16.638 78.4257 17.728H80.4257ZM79.0783 13.9525C78.1396 12.9055 76.8909 12.402 75.4357 12.402V14.402C76.3886 14.402 77.0718 14.7105 77.5892 15.2875L79.0783 13.9525ZM75.4357 12.402C73.9918 12.402 72.7412 12.8828 71.7759 13.8839L73.2156 15.2721C73.7622 14.7052 74.4717 14.402 75.4357 14.402V12.402ZM71.7629 13.8975C70.8294 14.9029 70.4037 16.2 70.4037 17.686H72.4037C72.4037 16.596 72.706 15.8211 73.2285 15.2584L71.7629 13.8975ZM70.4037 17.686V30.496H72.4037V17.686H70.4037ZM70.4037 30.496C70.4037 30.4283 70.4182 30.3562 70.4479 30.2894C70.4766 30.2248 70.5106 30.1849 70.5286 30.1669L71.9428 31.5811C72.2155 31.3084 72.4037 30.9369 72.4037 30.496H70.4037ZM70.5286 30.1669C70.5883 30.1072 70.6609 30.0609 70.7376 30.0322C70.8112 30.0046 70.8699 30 70.8997 30V32C71.254 32 71.6381 31.8858 71.9428 31.5811L70.5286 30.1669ZM70.8997 30H67.0357V32H70.8997V30ZM67.0357 30C67.0674 30 67.1081 30.005 67.1525 30.0198C67.1968 30.0346 67.2324 30.055 67.2577 30.074L66.0577 31.674C66.3428 31.8878 66.6794 32 67.0357 32V30ZM67.4577 30.274C67.4767 30.2993 67.4971 30.3349 67.5119 30.3793C67.5267 30.4236 67.5317 30.4644 67.5317 30.496H65.5317C65.5317 30.8524 65.6439 31.1889 65.8577 31.474L67.4577 30.274ZM67.5317 30.496V2.104H65.5317V30.496H67.5317ZM67.5317 2.104C67.5317 2.13386 67.5272 2.19249 67.4996 2.26612C67.4708 2.34283 67.4245 2.41544 67.3648 2.4751L65.9506 1.06089C65.6459 1.36563 65.5317 1.74974 65.5317 2.104H67.5317ZM67.3648 2.4751C67.3468 2.49314 67.3069 2.52713 67.2424 2.55581C67.1755 2.58553 67.1034 2.6 67.0357 2.6V0.599998C66.5948 0.599998 66.2233 0.788204 65.9506 1.06089L67.3648 2.4751ZM67.0357 2.6H70.8997V0.599998H67.0357V2.6ZM70.8997 2.6C70.833 2.6 70.74 2.58569 70.6415 2.53642C70.543 2.48716 70.4758 2.42138 70.4357 2.368L72.0357 1.168C71.7629 0.804193 71.3545 0.599998 70.8997 0.599998V2.6ZM70.6357 2.568C70.5824 2.52796 70.5166 2.46074 70.4673 2.36221C70.418 2.26369 70.4037 2.17072 70.4037 2.104H72.4037C72.4037 1.64924 72.1995 1.24086 71.8357 0.968001L70.6357 2.568ZM70.4037 2.104V11.386H72.4037V2.104H70.4037ZM70.4037 11.386C70.4037 11.6978 70.529 12.1927 71.0405 12.4484L71.9349 10.6596C72.1005 10.7423 72.2364 10.8783 72.3192 11.0438C72.3941 11.1937 72.4037 11.3233 72.4037 11.386H70.4037ZM71.0405 12.4484C71.2992 12.5778 71.7209 12.6494 72.1159 12.386C72.4167 12.1855 72.5255 11.897 72.5624 11.7862L70.6651 11.1538C70.674 11.127 70.7478 10.8944 71.0065 10.7219C71.1551 10.6229 71.3357 10.5645 71.5271 10.5645C71.7071 10.5645 71.8475 10.6159 71.935 10.6596L71.0405 12.4484ZM72.4102 12.0747C73.3264 10.868 74.7323 10.202 76.8217 10.202V8.202C74.2632 8.202 72.1971 9.04801 70.8173 10.8653L72.4102 12.0747ZM90.0074 5.758L89.3003 6.46511L89.3003 6.46511L90.0074 5.758ZM90.0074 1.474L90.7145 2.18111L90.7145 2.18111L90.0074 1.474ZM94.2914 1.474L93.5843 2.18111L93.5843 2.18111L94.2914 1.474ZM94.2914 5.758L94.9985 6.46511L94.9985 6.46511L94.2914 5.758ZM89.7554 30.874L88.9554 31.474L89.0412 31.5883L89.1554 31.674L89.7554 30.874ZM89.7554 9.664L89.0483 8.95689L89.0483 8.9569L89.7554 9.664ZM94.3334 9.664L93.5334 10.264L93.6192 10.3783L93.7334 10.464L94.3334 9.664ZM94.3334 30.874L95.0405 31.5811L94.3334 30.874ZM92.1494 5.598C91.5186 5.598 91.0681 5.40444 90.7145 5.05089L89.3003 6.46511C90.0668 7.23156 91.0442 7.598 92.1494 7.598V5.598ZM90.7145 5.05089C90.361 4.69734 90.1674 4.24679 90.1674 3.616H88.1674C88.1674 4.72121 88.5339 5.69865 89.3003 6.46511L90.7145 5.05089ZM90.1674 3.616C90.1674 2.98521 90.361 2.53465 90.7145 2.18111L89.3003 0.766892C88.5339 1.53334 88.1674 2.51079 88.1674 3.616H90.1674ZM90.7145 2.18111C91.0681 1.82756 91.5186 1.634 92.1494 1.634V-0.366002C91.0442 -0.366002 90.0668 0.000439296 89.3003 0.766894L90.7145 2.18111ZM92.1494 1.634C92.7802 1.634 93.2308 1.82756 93.5843 2.18111L94.9985 0.766894C94.2321 0.000439296 93.2546 -0.366002 92.1494 -0.366002V1.634ZM93.5843 2.18111C93.9379 2.53465 94.1314 2.98521 94.1314 3.616H96.1314C96.1314 2.51079 95.765 1.53334 94.9985 0.766892L93.5843 2.18111ZM94.1314 3.616C94.1314 4.24679 93.9379 4.69734 93.5843 5.05089L94.9985 6.46511C95.765 5.69865 96.1314 4.72121 96.1314 3.616H94.1314ZM93.5843 5.05089C93.2308 5.40444 92.7802 5.598 92.1494 5.598V7.598C93.2546 7.598 94.2321 7.23156 94.9985 6.46511L93.5843 5.05089ZM90.1334 30C90.1651 30 90.2058 30.005 90.2502 30.0198C90.2945 30.0346 90.3301 30.055 90.3554 30.074L89.1554 31.674C89.4405 31.8878 89.7771 32 90.1334 32V30ZM90.5554 30.274C90.5744 30.2993 90.5948 30.3349 90.6096 30.3793C90.6244 30.4236 90.6294 30.4644 90.6294 30.496H88.6294C88.6294 30.8524 88.7416 31.1889 88.9554 31.474L90.5554 30.274ZM90.6294 30.496V10H88.6294V30.496H90.6294ZM90.6294 10C90.6294 10.0299 90.6249 10.0885 90.5973 10.1621C90.5685 10.2388 90.5222 10.3114 90.4625 10.3711L89.0483 8.9569C88.7436 9.26163 88.6294 9.64574 88.6294 10H90.6294ZM90.4625 10.3711C90.4445 10.3891 90.4046 10.4231 90.3401 10.4518C90.2732 10.4815 90.2011 10.496 90.1334 10.496V8.496C89.6925 8.496 89.321 8.6842 89.0483 8.95689L90.4625 10.3711ZM90.1334 10.496H93.9974V8.496H90.1334V10.496ZM93.9974 10.496C93.9307 10.496 93.8377 10.4817 93.7392 10.4324C93.6407 10.3832 93.5735 10.3174 93.5334 10.264L95.1334 9.064C94.8606 8.70019 94.4522 8.496 93.9974 8.496V10.496ZM93.7334 10.464C93.6801 10.424 93.6143 10.3567 93.565 10.2582C93.5157 10.1597 93.5014 10.0667 93.5014 10H95.5014C95.5014 9.54524 95.2972 9.13685 94.9334 8.864L93.7334 10.464ZM93.5014 10V30.496H95.5014V10H93.5014ZM93.5014 30.496C93.5014 30.4283 93.5159 30.3562 93.5456 30.2894C93.5743 30.2248 93.6083 30.1849 93.6263 30.1669L95.0405 31.5811C95.3132 31.3084 95.5014 30.9369 95.5014 30.496H93.5014ZM93.6263 30.1669C93.686 30.1072 93.7586 30.0609 93.8353 30.0322C93.9089 30.0046 93.9676 30 93.9974 30V32C94.3517 32 94.7358 31.8858 95.0405 31.5811L93.6263 30.1669ZM93.9974 30H90.1334V32H93.9974V30ZM106.215 30.58L105.249 30.8396L105.253 30.8535L105.257 30.8673L106.215 30.58ZM98.5705 2.146L97.6004 2.38853L97.6025 2.39709L97.6048 2.40561L98.5705 2.146ZM98.5285 1.978H97.5285V2.1011L97.5584 2.22053L98.5285 1.978ZM103.695 2.02L104.665 1.77746L104.659 1.75491L104.652 1.73265L103.695 2.02ZM108.483 21.172L107.512 21.4145L107.522 21.4518L107.534 21.4882L108.483 21.172ZM108.735 21.172L109.683 21.4882L109.697 21.4469L109.707 21.4045L108.735 21.172ZM113.313 2.02L112.355 1.73265L112.347 1.75987L112.34 1.78751L113.313 2.02ZM118.479 2.02L119.448 1.77397L119.443 1.75319L119.436 1.73265L118.479 2.02ZM123.351 21.214L122.381 21.46L122.39 21.4955L122.402 21.5302L123.351 21.214ZM123.603 21.214L124.551 21.5302L124.564 21.4916L124.574 21.452L123.603 21.214ZM128.307 2.02L127.349 1.73265L127.341 1.75713L127.335 1.78197L128.307 2.02ZM133.263 2.146L134.231 2.39358L134.234 2.38225L134.237 2.37086L133.263 2.146ZM125.997 30.58L126.954 30.8673L126.96 30.8476L126.965 30.8276L125.997 30.58ZM120.915 30.58L119.943 30.8182L119.949 30.843L119.957 30.8673L120.915 30.58ZM116.001 10.546L116.972 10.3078L116.962 10.2683L116.949 10.2298L116.001 10.546ZM115.875 10.42L115.427 11.3144L115.638 11.42H115.875V10.42ZM115.749 10.546L114.778 10.3035L114.777 10.3104L114.775 10.3174L115.749 10.546ZM111.045 30.58L112.002 30.8673L112.011 30.8382L112.018 30.8086L111.045 30.58ZM106.803 30C106.799 30 106.892 30.0002 107.006 30.0813C107.124 30.1659 107.165 30.267 107.172 30.2927L105.257 30.8673C105.348 31.173 105.529 31.4841 105.843 31.7087C106.153 31.9298 106.498 32 106.803 32V30ZM107.18 30.3204L99.5362 1.88638L97.6048 2.40561L105.249 30.8396L107.18 30.3204ZM99.5407 1.90346L99.4987 1.73546L97.5584 2.22053L97.6004 2.38853L99.5407 1.90346ZM99.5285 1.978C99.5285 2.01494 99.523 2.09284 99.4835 2.18992C99.4414 2.29313 99.3714 2.39146 99.2773 2.46846C99.1007 2.61288 98.9474 2.6 98.9905 2.6V0.599998C98.7257 0.599998 98.3413 0.650114 98.0108 0.920541C97.6418 1.22239 97.5285 1.63896 97.5285 1.978H99.5285ZM98.9905 2.6H103.107V0.599998H98.9905V2.6ZM103.107 2.6C103.11 2.6 103.017 2.5998 102.903 2.51873C102.785 2.43415 102.744 2.33302 102.737 2.30734L104.652 1.73265C104.561 1.42697 104.38 1.11585 104.066 0.891264C103.756 0.670195 103.411 0.599998 103.107 0.599998V2.6ZM102.724 2.26253L107.512 21.4145L109.453 20.9295L104.665 1.77746L102.724 2.26253ZM107.534 21.4882C107.605 21.7029 107.888 22.298 108.609 22.298V20.298C108.863 20.298 109.088 20.4055 109.242 20.5594C109.371 20.6887 109.418 20.8168 109.431 20.8558L107.534 21.4882ZM108.609 22.298C109.329 22.298 109.612 21.7029 109.683 21.4882L107.786 20.8558C107.799 20.8168 107.846 20.6887 107.975 20.5594C108.129 20.4055 108.354 20.298 108.609 20.298V22.298ZM109.707 21.4045L114.285 2.25248L112.34 1.78751L107.762 20.9395L109.707 21.4045ZM114.27 2.30735C114.269 2.31304 114.237 2.40877 114.122 2.49762C114.002 2.58952 113.889 2.6 113.859 2.6V0.599998C113.548 0.599998 113.204 0.680474 112.902 0.912373C112.605 1.14123 112.44 1.44695 112.355 1.73265L114.27 2.30735ZM113.859 2.6H117.891V0.599998H113.859V2.6ZM117.891 2.6C117.894 2.6 117.801 2.5998 117.687 2.51873C117.569 2.43415 117.528 2.33302 117.521 2.30734L119.436 1.73265C119.345 1.42697 119.164 1.11585 118.85 0.891265C118.54 0.670195 118.195 0.599998 117.891 0.599998V2.6ZM117.509 2.26603L122.381 21.46L124.32 20.968L119.448 1.77397L117.509 2.26603ZM122.402 21.5302C122.473 21.7449 122.756 22.34 123.477 22.34V20.34C123.731 20.34 123.956 20.4475 124.11 20.6014C124.239 20.7307 124.286 20.8588 124.299 20.8978L122.402 21.5302ZM123.477 22.34C124.197 22.34 124.48 21.7449 124.551 21.5302L122.654 20.8978C122.667 20.8588 122.714 20.7307 122.843 20.6014C122.997 20.4475 123.222 20.34 123.477 20.34V22.34ZM124.574 21.452L129.278 2.25803L127.335 1.78197L122.631 20.976L124.574 21.452ZM129.264 2.30735C129.257 2.33302 129.216 2.43415 129.098 2.51873C128.984 2.5998 128.891 2.6 128.895 2.6V0.599998C128.59 0.599998 128.245 0.670195 127.935 0.891264C127.621 1.11585 127.44 1.42697 127.349 1.73265L129.264 2.30735ZM128.895 2.6H132.801V0.599998H128.895V2.6ZM132.801 2.6C132.887 2.6 132.653 2.62667 132.447 2.38244C132.226 2.12124 132.3 1.869 132.288 1.92114L134.237 2.37086C134.309 2.059 134.348 1.53375 133.973 1.09055C133.613 0.664324 133.106 0.599998 132.801 0.599998V2.6ZM132.294 1.89842L125.028 30.3324L126.965 30.8276L134.231 2.39358L132.294 1.89842ZM125.039 30.2927C125.046 30.267 125.087 30.1659 125.205 30.0813C125.319 30.0002 125.412 30 125.409 30V32C125.713 32 126.058 31.9298 126.368 31.7087C126.682 31.4841 126.863 31.173 126.954 30.8673L125.039 30.2927ZM125.409 30H121.503V32H125.409V30ZM121.503 30C121.499 30 121.592 30.0002 121.706 30.0813C121.824 30.1659 121.865 30.267 121.872 30.2927L119.957 30.8673C120.048 31.173 120.229 31.4841 120.543 31.7087C120.853 31.9298 121.198 32 121.503 32V30ZM121.886 30.3418L116.972 10.3078L115.029 10.7842L119.943 30.8182L121.886 30.3418ZM116.949 10.2298C116.878 10.0151 116.595 9.42 115.875 9.42V11.42C115.62 11.42 115.395 11.3125 115.241 11.1586C115.112 11.0293 115.065 10.9012 115.052 10.8622L116.949 10.2298ZM116.322 9.52558C116.174 9.45175 115.955 9.38487 115.694 9.42217C115.427 9.46027 115.226 9.59136 115.094 9.72339C114.872 9.94524 114.802 10.2093 114.778 10.3035L116.719 10.7885C116.716 10.7997 116.706 10.8372 116.683 10.8889C116.661 10.9363 116.61 11.0356 116.508 11.1376C116.397 11.2486 116.219 11.3675 115.977 11.4021C115.74 11.4359 115.547 11.3742 115.427 11.3144L116.322 9.52558ZM114.775 10.3174L110.071 30.3514L112.018 30.8086L116.722 10.7746L114.775 10.3174ZM110.087 30.2927C110.088 30.287 110.12 30.1912 110.235 30.1024C110.355 30.0105 110.468 30 110.499 30V32C110.809 32 111.153 31.9195 111.455 31.6876C111.752 31.4588 111.917 31.153 112.002 30.8673L110.087 30.2927ZM110.499 30H106.803V32H110.499V30ZM152.679 17.854L151.686 17.9745L151.688 17.9933L151.691 18.012L152.679 17.854ZM152.847 20.206L153.846 20.2382L153.847 20.2221V20.206H152.847ZM152.805 21.508L151.805 21.4758L151.805 21.4919V21.508H152.805ZM138.945 22.222H137.945V22.2674L137.949 22.3125L138.945 22.222ZM139.323 24.112L140.271 23.7958L140.249 23.7284L140.217 23.6648L139.323 24.112ZM144.237 27.178L144.226 28.178H144.237V27.178ZM148.773 24.826L149.586 25.4072L149.596 25.3941L149.605 25.3807L148.773 24.826ZM149.487 24.7L148.78 25.4071L148.814 25.4414L148.851 25.4723L149.487 24.7ZM152.091 26.842L151.455 27.6143L151.466 27.623L151.477 27.6314L152.091 26.842ZM152.217 27.514L153.034 28.09L153.042 28.0794L153.049 28.0687L152.217 27.514ZM148.731 30.37L148.312 29.462L148.305 29.4652L148.731 30.37ZM138.357 29.908L137.813 30.7472L137.82 30.7517L138.357 29.908ZM135.039 25.792L135.968 25.4232L135.964 25.4116L135.959 25.4001L135.039 25.792ZM134.577 15.544L135.525 15.8602L135.532 15.8396L135.538 15.8187L134.577 15.544ZM137.727 10.924L138.315 11.7327L138.317 11.7309L137.727 10.924ZM140.751 14.2L141.351 15L141.356 14.9962L140.751 14.2ZM139.323 16.342L140.266 16.6748L140.273 16.6536L140.28 16.632L139.323 16.342ZM138.987 18.19L139.915 18.5614L139.973 18.4179L139.984 18.2639L138.987 18.19ZM147.891 18.19H148.891V18.1501L148.887 18.1103L147.891 18.19ZM147.639 16.594L146.669 16.8365L146.675 16.8625L146.683 16.8881L147.639 16.594ZM146.127 14.242L145.517 15.0346L145.524 15.0402L145.531 15.0456L146.127 14.242ZM151.691 18.012C151.793 18.6497 151.847 19.3796 151.847 20.206H153.847C153.847 19.2964 153.788 18.4583 153.666 17.696L151.691 18.012ZM151.847 20.1738L151.805 21.4758L153.804 21.5402L153.846 20.2382L151.847 20.1738ZM151.805 21.508C151.805 21.5219 151.802 21.3486 151.972 21.1789C152.141 21.0092 152.315 21.012 152.301 21.012V23.012C152.623 23.012 153.048 22.9308 153.386 22.5931C153.723 22.2554 153.805 21.8301 153.805 21.508H151.805ZM152.301 21.012H139.155V23.012H152.301V21.012ZM139.155 21.012C138.931 21.012 138.579 21.0687 138.29 21.3574C138.001 21.6461 137.945 21.9979 137.945 22.222H139.945C139.945 22.3061 139.923 22.5529 139.704 22.7716C139.486 22.9903 139.239 23.012 139.155 23.012V21.012ZM137.949 22.3125C138.032 23.2303 138.166 24.0354 138.428 24.5592L140.217 23.6648C140.143 23.5166 140.025 23.0617 139.941 22.1315L137.949 22.3125ZM138.374 24.4282C138.776 25.6333 139.489 26.5921 140.526 27.2389C141.546 27.8753 142.802 28.1626 144.226 28.1779L144.247 26.1781C143.067 26.1654 142.203 25.9277 141.585 25.5421C140.983 25.1669 140.542 24.6067 140.271 23.7958L138.374 24.4282ZM144.237 28.178C146.468 28.178 148.281 27.2343 149.586 25.4072L147.959 24.2448C147.024 25.5537 145.813 26.178 144.237 26.178V28.178ZM149.605 25.3807C149.598 25.3914 149.56 25.4445 149.476 25.4945C149.386 25.5485 149.284 25.574 149.193 25.574V23.574C148.62 23.574 148.195 23.8896 147.941 24.2713L149.605 25.3807ZM149.193 25.574C149.12 25.574 149.038 25.5597 148.956 25.5246C148.876 25.4901 148.817 25.4448 148.78 25.4071L150.194 23.9929C149.935 23.734 149.587 23.574 149.193 23.574V25.574ZM148.851 25.4723L151.455 27.6143L152.726 26.0697L150.122 23.9277L148.851 25.4723ZM151.477 27.6314C151.487 27.6393 151.367 27.5503 151.328 27.3413C151.287 27.1212 151.373 26.9769 151.385 26.9593L153.049 28.0687C153.228 27.7991 153.377 27.4168 153.294 26.9727C153.213 26.5397 152.946 26.2407 152.705 26.0526L151.477 27.6314ZM151.399 26.938C150.639 28.017 149.619 28.8589 148.312 29.462L149.15 31.278C150.755 30.5371 152.058 29.475 153.034 28.09L151.399 26.938ZM148.305 29.4652C147.025 30.0675 145.577 30.378 143.943 30.378V32.378C145.836 32.378 147.58 32.0165 149.156 31.2748L148.305 29.4652ZM143.943 30.378C141.911 30.378 140.244 29.9237 138.894 29.0643L137.82 30.7517C139.549 31.8523 141.606 32.378 143.943 32.378V30.378ZM138.901 29.0688C137.572 28.208 136.596 27.0051 135.968 25.4232L134.109 26.1608C134.881 28.1069 136.117 29.648 137.813 30.7472L138.901 29.0688ZM135.959 25.4001C135.391 24.0662 135.073 22.1203 135.073 19.492H133.073C133.073 22.2397 133.399 24.4938 134.119 26.1839L135.959 25.4001ZM135.073 19.492C135.073 17.9249 135.236 16.7274 135.525 15.8602L133.628 15.2278C133.245 16.3766 133.073 17.8111 133.073 19.492H135.073ZM135.538 15.8187C136.041 14.0572 136.969 12.7118 138.315 11.7327L137.138 10.1153C135.405 11.3762 134.232 13.1108 133.615 15.2693L135.538 15.8187ZM138.317 11.7309C139.693 10.7237 141.356 10.202 143.355 10.202V8.202C140.986 8.202 138.896 8.82831 137.136 10.1171L138.317 11.7309ZM143.355 10.202C145.939 10.202 147.824 10.8743 149.142 12.098C150.468 13.3283 151.354 15.2384 151.686 17.9745L153.671 17.7335C153.303 14.7016 152.285 12.2857 150.503 10.632C148.714 8.97167 146.287 8.202 143.355 8.202V10.202ZM143.355 12.402C142.14 12.402 141.049 12.7171 140.146 13.4038L141.356 14.9962C141.852 14.6189 142.497 14.402 143.355 14.402V12.402ZM140.151 13.4C139.284 14.0502 138.698 14.956 138.366 16.052L140.28 16.632C140.508 15.88 140.874 15.3578 141.351 15L140.151 13.4ZM138.38 16.0092C138.171 16.5993 138.049 17.3113 137.989 18.1161L139.984 18.2639C140.036 17.5567 140.138 17.0367 140.266 16.6748L138.38 16.0092ZM138.058 17.8186C137.991 17.9864 137.829 18.5017 138.206 18.9722C138.537 19.3862 139.013 19.4 139.155 19.4V17.4C139.174 17.4 139.248 17.401 139.348 17.4324C139.452 17.4649 139.624 17.5433 139.768 17.7228C140.088 18.1233 139.926 18.5336 139.915 18.5614L138.058 17.8186ZM139.155 19.4H147.681V17.4H139.155V19.4ZM147.681 19.4C147.905 19.4 148.257 19.3433 148.545 19.0546C148.834 18.7659 148.891 18.4141 148.891 18.19H146.891C146.891 18.1059 146.912 17.8591 147.131 17.6404C147.35 17.4217 147.597 17.4 147.681 17.4V19.4ZM148.887 18.1103C148.83 17.3875 148.739 16.7692 148.594 16.2999L146.683 16.8881C146.762 17.1468 146.84 17.5925 146.894 18.2697L148.887 18.1103ZM148.609 16.3515C148.307 15.1437 147.684 14.151 146.722 13.4384L145.531 15.0456C146.082 15.453 146.466 16.0283 146.669 16.8365L148.609 16.3515ZM146.736 13.4494C145.798 12.7275 144.646 12.402 143.355 12.402V14.402C144.304 14.402 144.999 14.6365 145.517 15.0346L146.736 13.4494ZM175.401 15.082L176.358 14.7915L176.352 14.7721L176.346 14.7529L175.401 15.082ZM175.317 25.456L174.374 25.1241L174.371 25.1319L174.369 25.1398L175.317 25.456ZM172.335 29.782L171.733 28.984L171.733 28.984L172.335 29.782ZM162.465 29.11L161.633 29.6647L161.665 29.713L161.703 29.7572L162.465 29.11ZM162.045 30.874L162.752 31.5811L162.752 31.5811L162.045 30.874ZM157.467 30.874L156.667 31.474L156.753 31.5883L156.867 31.674L157.467 30.874ZM157.467 1.768L156.76 1.06089L156.76 1.06089L157.467 1.768ZM162.045 1.768L161.245 2.368L161.331 2.48228L161.445 2.568L162.045 1.768ZM162.297 11.386L161.85 12.2804L161.85 12.2804L162.297 11.386ZM162.465 11.344L163.172 12.0511L163.202 12.0211L163.23 11.9886L162.465 11.344ZM172.377 10.756L171.767 11.548L171.775 11.554L172.377 10.756ZM170.109 25.12L169.241 24.6239L169.239 24.6279L170.109 25.12ZM169.857 15.166L169.016 15.7068L169.023 15.7181L169.031 15.7293L169.857 15.166ZM163.347 15.25L164.201 15.7707L164.208 15.7587L163.347 15.25ZM163.263 25.12L164.143 24.6437L164.134 24.6277L164.125 24.612L163.263 25.12ZM168.639 26.632L169.118 27.5099L169.133 27.5017L169.148 27.4929L168.639 26.632ZM174.444 15.3725C174.888 16.8352 175.115 18.444 175.115 20.206H177.115C177.115 18.272 176.866 16.4648 176.358 14.7915L174.444 15.3725ZM175.115 20.206C175.115 22.1071 174.861 23.7408 174.374 25.1241L176.261 25.7879C176.838 24.1472 177.115 22.2809 177.115 20.206H175.115ZM174.369 25.1398C173.808 26.8223 172.922 28.0857 171.733 28.984L172.938 30.58C174.492 29.4063 175.595 27.7857 176.266 25.7722L174.369 25.1398ZM171.733 28.984C170.561 29.8691 169.101 30.336 167.295 30.336V32.336C169.465 32.336 171.366 31.7669 172.938 30.58L171.733 28.984ZM167.295 30.336C165.627 30.336 164.296 29.7212 163.228 28.4628L161.703 29.7572C163.155 31.4668 165.044 32.336 167.295 32.336V30.336ZM163.297 28.5553C163.226 28.4482 163.08 28.2572 162.829 28.1316C162.519 27.9768 162.16 27.9768 161.85 28.1316L162.745 29.9204C162.636 29.9746 162.498 30.0155 162.339 30.0155C162.181 30.0155 162.042 29.9746 161.934 29.9204C161.739 29.8228 161.649 29.6878 161.633 29.6647L163.297 28.5553ZM161.85 28.1316C161.339 28.3873 161.213 28.8822 161.213 29.194H163.213C163.213 29.2566 163.204 29.3863 163.129 29.5362C163.046 29.7017 162.91 29.8377 162.745 29.9204L161.85 28.1316ZM161.213 29.194V30.496H163.213V29.194H161.213ZM161.213 30.496C161.213 30.4283 161.228 30.3562 161.258 30.2894C161.286 30.2248 161.32 30.1849 161.338 30.1669L162.752 31.5811C163.025 31.3084 163.213 30.9369 163.213 30.496H161.213ZM161.338 30.1669C161.398 30.1072 161.47 30.0609 161.547 30.0322C161.621 30.0046 161.679 30 161.709 30V32C162.064 32 162.448 31.8858 162.752 31.5811L161.338 30.1669ZM161.709 30H157.845V32H161.709V30ZM157.845 30C157.877 30 157.918 30.005 157.962 30.0198C158.006 30.0346 158.042 30.055 158.067 30.074L156.867 31.674C157.152 31.8878 157.489 32 157.845 32V30ZM158.267 30.274C158.286 30.2993 158.307 30.3349 158.321 30.3793C158.336 30.4236 158.341 30.4644 158.341 30.496H156.341C156.341 30.8524 156.453 31.1889 156.667 31.474L158.267 30.274ZM158.341 30.496V2.104H156.341V30.496H158.341ZM158.341 2.104C158.341 2.13386 158.337 2.19249 158.309 2.26612C158.28 2.34283 158.234 2.41544 158.174 2.4751L156.76 1.06089C156.455 1.36563 156.341 1.74974 156.341 2.104H158.341ZM158.174 2.4751C158.156 2.49314 158.116 2.52713 158.052 2.55581C157.985 2.58553 157.913 2.6 157.845 2.6V0.599998C157.404 0.599998 157.033 0.788203 156.76 1.06089L158.174 2.4751ZM157.845 2.6H161.709V0.599998H157.845V2.6ZM161.709 2.6C161.643 2.6 161.55 2.58569 161.451 2.53642C161.353 2.48716 161.285 2.42138 161.245 2.368L162.845 1.168C162.572 0.804193 162.164 0.599998 161.709 0.599998V2.6ZM161.445 2.568C161.392 2.52796 161.326 2.46074 161.277 2.36221C161.228 2.26369 161.213 2.17072 161.213 2.104H163.213C163.213 1.64924 163.009 1.24086 162.645 0.968001L161.445 2.568ZM161.213 2.104V11.218H163.213V2.104H161.213ZM161.213 11.218C161.213 11.5298 161.339 12.0247 161.85 12.2804L162.745 10.4916C162.91 10.5743 163.046 10.7103 163.129 10.8758C163.204 11.0257 163.213 11.1553 163.213 11.218H161.213ZM161.85 12.2804C162.072 12.3914 162.344 12.4366 162.624 12.3666C162.881 12.3023 163.062 12.1615 163.172 12.0511L161.758 10.6369C161.813 10.5825 161.937 10.4767 162.139 10.4264C162.363 10.3704 162.578 10.4086 162.745 10.4916L161.85 12.2804ZM163.23 11.9886C164.23 10.802 165.538 10.202 167.253 10.202V8.202C164.992 8.202 163.108 9.03002 161.701 10.6994L163.23 11.9886ZM167.253 10.202C169.155 10.202 170.634 10.6746 171.767 11.548L172.988 9.96399C171.433 8.76545 169.496 8.202 167.253 8.202V10.202ZM171.775 11.554C172.968 12.455 173.869 13.7231 174.457 15.4111L176.346 14.7529C175.646 12.7449 174.531 11.129 172.98 9.95796L171.775 11.554ZM170.978 25.6161C171.769 24.2311 172.117 22.4263 172.117 20.29H170.117C170.117 22.2417 169.794 23.6569 169.241 24.6239L170.978 25.6161ZM172.117 20.29C172.117 17.9937 171.678 16.0613 170.684 14.6027L169.031 15.7293C169.717 16.7347 170.117 18.2183 170.117 20.29H172.117ZM170.698 14.6252C169.745 13.1425 168.296 12.402 166.497 12.402V14.402C167.666 14.402 168.457 14.8375 169.016 15.7068L170.698 14.6252ZM166.497 12.402C164.753 12.402 163.385 13.2208 162.486 14.7413L164.208 15.7587C164.766 14.8152 165.497 14.402 166.497 14.402V12.402ZM162.494 14.7294C161.656 16.1037 161.297 17.9836 161.297 20.248H163.297C163.297 18.1444 163.639 16.6923 164.201 15.7706L162.494 14.7294ZM161.297 20.248C161.297 22.4724 161.624 24.3089 162.402 25.628L164.125 24.612C163.615 23.7471 163.297 22.3356 163.297 20.248H161.297ZM162.384 25.5963C162.815 26.3927 163.383 27.0396 164.104 27.4837C164.828 27.9293 165.652 28.136 166.539 28.136V26.136C165.971 26.136 165.52 26.0067 165.152 25.7803C164.782 25.5524 164.439 25.1913 164.143 24.6437L162.384 25.5963ZM166.539 28.136C167.471 28.136 168.339 27.9351 169.118 27.5099L168.16 25.7541C167.708 26.0009 167.176 26.136 166.539 26.136V28.136ZM169.148 27.4929C169.92 27.0367 170.533 26.4032 170.98 25.6121L169.239 24.6279C168.958 25.1248 168.59 25.4993 168.131 25.7711L169.148 27.4929Z" fill="black" mask="url(#path-1-outside-1_1_4)"/>
</svg>
