<svg width="816" height="905" viewBox="0 0 816 905" fill="none" xmlns="http://www.w3.org/2000/svg">
<path d="M72.8036 1364.33C-58.6832 1306.42 -130.342 1274.63 -250.909 1221.49C-244.994 1206.05 -238.625 1190.84 -229.98 1170.63C-481.579 1047.55 -733.406 924.477 -985.006 801.628C-1009.35 868.161 -1020.27 901.996 -1039.6 970.346C-1058.71 1038.7 -1067.36 1074.8 -1080.78 1143.15C-1081 1144.51 -1081.23 1145.65 -1081.46 1147.01C-1081.46 1147.69 -1081.69 1148.15 -1081.91 1148.83C-1095.11 1215.59 -1101.02 1253.74 -1108.53 1320.27C-1108.53 1321.41 -1108.76 1322.32 -1108.99 1323.45C-1109.21 1326.18 -1109.67 1328.67 -1109.9 1331.4C-1117.63 1400.43 -1120.59 1440.4 -1122.64 1512.38C-1123.55 1540.99 -1124 1564.61 -1124 1587.77H-138.531C-202.682 1577.32 -259.781 1567.79 -335.761 1555.3C-333.486 1536.9 -330.529 1518.97 -326.662 1496.03C-202.909 1521.92 -129.204 1537.59 5.46802 1565.97C5.69543 1564.83 5.92297 1563.93 6.15039 1562.79C45.0505 1571.19 83.95 1579.37 122.85 1587.77H265.939C182.679 1566.42 99.192 1545.31 15.9321 1523.96C15.9321 1524.42 15.7045 1524.87 15.7045 1525.32C-118.967 1491.03 -192.673 1472.41 -316.197 1441.08C-312.558 1423.37 -308.235 1406.11 -302.548 1383.4C-179.478 1420.41 -106.228 1442.44 27.9889 1482.86C28.4438 1481.27 28.8988 1480.14 29.3538 1478.77C148.556 1515.11 267.531 1551.44 386.734 1588H461.577C321.673 1539.4 181.542 1490.81 41.6382 1442.21C41.6382 1442.67 41.4103 1442.89 41.1827 1443.35C-92.3514 1397.25 -165.374 1372.05 -287.989 1329.58C-282.985 1312.55 -277.525 1295.98 -270.018 1273.95C-148.54 1321.86 -75.9722 1350.47 56.4246 1402.47C57.1071 1400.66 57.7894 1399.3 58.4719 1397.71C217.03 1461.06 375.815 1524.64 534.373 1588H580.779C411.53 1513.06 242.281 1438.35 73.0314 1363.42C73.0314 1363.87 72.8033 1364.1 72.5759 1364.55L72.8036 1364.33ZM35.0409 1460.83C33.2209 1465.83 31.6288 1471.28 29.5814 1477.86C31.6288 1471.51 33.4485 1466.06 35.0409 1460.83Z" fill="url(#paint0_linear_1_1028)"/>
<path d="M108.516 1292.12C109.199 1290.98 109.654 1290.08 110.336 1288.71C-17.9659 1219.23 -88.0314 1181.31 -205.869 1117.5C-199.272 1103.65 -192.22 1089.79 -182.666 1071.85C-427.668 927.433 -672.898 783.012 -917.9 638.591C-946.336 700.81 -959.303 732.601 -983.189 797.091C-744.101 914.717 -504.786 1032.12 -265.698 1149.74C-122.837 1219.91 -51.4061 1255.11 91.4551 1325.27C92.5925 1323.23 93.2749 1321.41 94.1848 1319.6C273.444 1409.06 452.475 1498.31 631.734 1587.77H663.809C479.545 1487.86 295.282 1387.72 111.019 1287.81C110.109 1289.39 109.426 1290.76 108.744 1292.12H108.516Z" fill="url(#paint1_linear_1_1028)"/>
<path d="M153.107 1216.73C28.9001 1136.12 -39.118 1091.84 -153.088 1017.81C-146.036 1005.55 -138.302 993.062 -128.292 976.94C-365.105 811.627 -601.918 646.315 -838.731 481.229C-870.807 539.134 -885.593 568.881 -913.574 629.057C-680.856 767.574 -448.365 906.091 -215.647 1044.61C-204.955 1050.97 -194.946 1056.87 -185.164 1062.78L-179.477 1066.18C-63.6865 1135.21 5.46899 1176.31 131.724 1251.48C133.089 1249.21 134.226 1247.16 135.364 1245.35C324.177 1359.57 512.99 1473.79 701.803 1587.78H725.462C534.829 1463.79 344.423 1339.81 153.79 1216.05C153.79 1216.28 153.335 1216.51 153.335 1216.96L153.107 1216.73Z" fill="url(#paint2_linear_1_1028)"/>
<path d="M201.559 1147.92C201.559 1147.92 200.194 1149.74 199.512 1150.65C199.967 1149.97 200.421 1149.51 201.104 1148.61C81.6735 1057.09 16.3853 1006.91 -93.0355 922.89C-85.5284 911.99 -77.5663 901.091 -67.3295 887.012C-294.36 701.489 -521.164 516.194 -748.195 330.672C-783.227 384.262 -799.834 411.739 -831.227 467.6C-606.926 626.554 -382.397 785.281 -158.096 944.235C-24.1069 1039.15 43.001 1086.61 176.99 1181.53C178.81 1179.03 180.175 1176.99 181.768 1174.95C373.084 1312.55 564.399 1450.16 755.714 1588H759.809C762.539 1586.41 764.586 1585.05 767.771 1583C579.185 1438.13 390.599 1293.03 201.786 1148.15L201.559 1147.92Z" fill="url(#paint3_linear_1_1028)"/>
<path d="M253.882 1084.57C140.139 982.388 78.0358 926.754 -26.1528 832.971C-18.4183 823.66 -10.4564 813.896 0.00793457 801.634C-215.649 596.81 -431.078 391.759 -646.734 186.935C-684.497 236.211 -702.468 261.417 -736.818 312.963C-522.299 491.446 -307.553 670.156 -93.0337 848.639C35.0408 955.365 99.1923 1008.73 227.267 1115.23C229.542 1112.5 231.361 1110.46 233.181 1108.19C416.307 1263.28 599.661 1418.6 782.787 1573.7C786.882 1571.43 788.702 1570.52 792.796 1568.47C613.31 1406.8 433.823 1245.34 254.337 1083.66C254.337 1083.89 253.882 1084.12 253.882 1084.35V1084.57ZM233.181 1108.42C234.773 1106.37 236.593 1104.33 238.186 1102.51C236.593 1104.33 235.001 1106.14 233.181 1108.42Z" fill="url(#paint4_linear_1_1028)"/>
<path d="M311.435 1025.08C204.289 912.901 145.825 851.59 47.7784 748.724C55.5129 740.777 63.4748 732.375 73.9391 721.929C-128.751 498.485 -331.44 274.813 -534.13 51.3691C-574.168 96.1034 -593.277 119.265 -630.357 166.27C-422.662 368.142 -214.968 570.014 -7.27344 772.113C105.105 881.338 165.844 940.378 282.544 1053.92C285.274 1051.19 287.549 1048.92 289.596 1046.65C462.713 1218.32 636.057 1389.76 809.174 1561.43C811.676 1560.3 813.723 1559.39 815.543 1558.71V1553.71C647.659 1377.5 479.774 1201.06 311.662 1024.85L311.207 1025.3L311.435 1025.08ZM294.373 1041.88C293.008 1043.24 291.643 1044.61 290.051 1046.2C291.416 1044.83 293.008 1043.24 294.373 1041.88Z" fill="url(#paint5_linear_1_1028)"/>
<path d="M373.085 969.896C273.446 848.183 219.077 781.649 127.628 669.7C135.135 662.887 143.097 655.848 153.106 647.219C-35.2519 406.063 -223.611 164.679 -411.742 -76.4771C-453.371 -36.0573 -473.617 -15.393 -512.745 27.2975C-312.557 254.148 -112.37 480.999 87.8181 707.622C182.68 815.03 239.096 879.065 342.375 996.237C347.835 991.469 351.929 987.835 356.251 984.202C354.659 985.565 352.839 987.154 350.792 988.971C505.937 1168.36 660.855 1347.75 816 1527.14V1510.57C668.589 1330.27 521.178 1149.97 373.995 969.442C373.995 969.442 373.54 969.669 373.54 969.896H373.085Z" fill="url(#paint6_linear_1_1028)"/>
<path d="M438.827 919.941C347.378 789.144 297.331 717.615 213.389 597.491C220.668 591.814 228.403 586.137 237.73 578.871C65.0681 320.911 -107.366 62.9508 -280.028 -195.009C-323.251 -159.131 -344.179 -140.511 -384.899 -102.135L170.394 632.461C257.976 748.498 310.297 817.529 405.842 944.011C411.756 939.47 416.534 936.064 421.083 932.657C419.491 933.793 417.671 935.156 415.624 936.745C548.931 1117.27 682.237 1297.8 815.544 1478.32V1458.57C689.972 1278.95 564.627 1099.33 439.055 919.714C438.828 919.714 438.6 919.941 438.373 920.168L438.827 919.941Z" fill="url(#paint7_linear_1_1028)"/>
<path d="M508.21 874.981C425.632 735.782 380.591 659.484 304.61 531.64C311.435 527.098 318.714 522.329 327.586 516.88C171.986 243.251 16.3857 -30.1502 -138.987 -303.779C-183.119 -272.215 -204.731 -255.865 -246.816 -222.031C-86.4384 26.8464 73.712 275.723 234.09 524.827C239.094 532.548 243.871 540.042 248.648 547.535C250.241 550.033 252.061 552.758 253.653 555.256C336.685 684.236 384.458 758.263 473.404 896.326C479.774 892.239 484.779 889.06 489.784 885.88C488.191 886.789 486.599 887.924 484.552 889.06C594.882 1065.04 705.213 1241.03 815.543 1416.79V1392.72C713.175 1219.91 610.806 1047.11 508.438 874.3C508.438 874.3 508.21 874.3 507.983 874.527L508.21 874.981Z" fill="url(#paint8_linear_1_1028)"/>
<path d="M581.233 835.474C508.211 688.327 468.4 607.942 401.292 472.831C407.662 469.425 414.486 465.564 422.448 461.25C285.274 173.316 148.1 -114.618 10.6985 -402.553C-34.1162 -375.303 -55.9546 -361.225 -99.1769 -331.705C44.1392 -67.8406 187.455 196.25 330.771 460.115C416.306 617.706 459.073 696.502 544.608 854.094C556.21 847.963 563.262 844.103 573.044 839.107C568.039 841.605 563.717 843.876 557.12 847.282C643.337 1011 729.327 1174.73 815.544 1338.22V1307.57C737.516 1149.98 659.489 992.384 581.233 834.792C581.233 834.792 581.006 834.792 580.778 834.792L581.233 835.474Z" fill="url(#paint9_linear_1_1028)"/>
<path d="M656.986 801.64C594.2 647.454 560.077 562.981 502.523 421.512C508.21 419.014 514.353 416.062 521.405 413.11L168.346 -490.204C123.304 -467.269 101.011 -455.234 57.5609 -430.029C189.048 -138.007 320.534 154.015 452.021 446.263C514.352 584.554 551.433 666.983 619.224 817.762C631.28 812.312 638.787 809.133 649.024 805.046C644.019 807.09 639.697 808.906 633.328 811.631C694.294 951.965 755.032 1092.3 815.999 1232.86V1191.76C763.222 1061.87 710.445 931.755 657.669 801.867C657.669 801.867 657.441 801.867 657.214 801.867L656.986 801.64Z" fill="url(#paint10_linear_1_1028)"/>
<path d="M735.694 773.927C683.828 613.157 655.62 525.505 608.075 378.131C613.08 376.315 618.312 374.498 624.454 372.227C527.545 59.3147 430.409 -253.598 333.5 -566.511C288.457 -547.663 266.164 -537.672 222.486 -516.781C328.04 -226.576 433.593 63.6292 538.919 353.834C601.933 527.094 633.326 613.838 696.34 787.098C709.079 782.557 716.814 780.058 727.733 776.652C722.728 778.242 718.406 779.604 712.036 781.875C746.614 881.562 781.192 981.476 815.997 1081.16V1021.67L736.15 774.154C736.15 774.154 736.15 774.154 735.922 774.154L735.694 773.927Z" fill="url(#paint11_linear_1_1028)"/>
<path d="M731.147 338.847C655.849 15.7157 580.778 -307.643 505.48 -630.774C460.666 -616.014 438.6 -608.066 394.923 -591.263C479.775 -289.931 564.627 11.1741 649.479 312.506C700.209 492.351 725.459 582.274 776.188 762.346C789.383 758.94 797.345 756.897 808.719 754.172C803.942 755.307 799.62 756.215 793.25 757.805C800.757 785.963 808.264 814.347 815.771 842.505V747.587C776.189 584.318 754.35 493.487 717.725 342.48C721.82 341.345 726.369 340.209 731.147 338.847Z" fill="url(#paint12_linear_1_1028)"/>
<path d="M575.089 -652.573C641.515 -325.809 707.713 1.18304 774.139 327.948C790.063 406.516 802.803 468.962 815.769 533.452V151.735C771.865 -126.208 728.187 -404.15 684.283 -682.32C640.15 -671.421 618.311 -665.517 575.089 -652.573Z" fill="url(#paint13_linear_1_1028)"/>
<defs>
<linearGradient id="paint0_linear_1_1028" x1="-271.61" y1="801.628" x2="-271.61" y2="1588" gradientUnits="userSpaceOnUse">
<stop stop-color="#0FC97E"/>
<stop offset="1" stop-color="#3064E9"/>
</linearGradient>
<linearGradient id="paint1_linear_1_1028" x1="-159.69" y1="638.591" x2="-159.69" y2="1587.77" gradientUnits="userSpaceOnUse">
<stop stop-color="#0FC97E"/>
<stop offset="1" stop-color="#3064E9"/>
</linearGradient>
<linearGradient id="paint2_linear_1_1028" x1="-94.0561" y1="481.229" x2="-94.0561" y2="1587.78" gradientUnits="userSpaceOnUse">
<stop stop-color="#0FC97E"/>
<stop offset="1" stop-color="#3064E9"/>
</linearGradient>
<linearGradient id="paint3_linear_1_1028" x1="-31.7278" y1="330.672" x2="-31.7278" y2="1588" gradientUnits="userSpaceOnUse">
<stop stop-color="#0FC97E"/>
<stop offset="1" stop-color="#3064E9"/>
</linearGradient>
<linearGradient id="paint4_linear_1_1028" x1="27.989" y1="186.935" x2="27.989" y2="1573.7" gradientUnits="userSpaceOnUse">
<stop stop-color="#0FC97E"/>
<stop offset="1" stop-color="#3064E9"/>
</linearGradient>
<linearGradient id="paint5_linear_1_1028" x1="92.5932" y1="51.3691" x2="92.5932" y2="1561.43" gradientUnits="userSpaceOnUse">
<stop stop-color="#0FC97E"/>
<stop offset="1" stop-color="#3064E9"/>
</linearGradient>
<linearGradient id="paint6_linear_1_1028" x1="151.628" y1="-76.4771" x2="151.628" y2="1527.14" gradientUnits="userSpaceOnUse">
<stop stop-color="#0FC97E"/>
<stop offset="1" stop-color="#3064E9"/>
</linearGradient>
<linearGradient id="paint7_linear_1_1028" x1="215.322" y1="-195.009" x2="215.322" y2="1478.32" gradientUnits="userSpaceOnUse">
<stop stop-color="#0FC97E"/>
<stop offset="1" stop-color="#3064E9"/>
</linearGradient>
<linearGradient id="paint8_linear_1_1028" x1="284.364" y1="-303.779" x2="284.364" y2="1416.79" gradientUnits="userSpaceOnUse">
<stop stop-color="#0FC97E"/>
<stop offset="1" stop-color="#3064E9"/>
</linearGradient>
<linearGradient id="paint9_linear_1_1028" x1="358.183" y1="-402.553" x2="358.183" y2="1338.22" gradientUnits="userSpaceOnUse">
<stop stop-color="#0FC97E"/>
<stop offset="1" stop-color="#3064E9"/>
</linearGradient>
<linearGradient id="paint10_linear_1_1028" x1="436.78" y1="-490.204" x2="436.78" y2="1232.86" gradientUnits="userSpaceOnUse">
<stop stop-color="#0FC97E"/>
<stop offset="1" stop-color="#3064E9"/>
</linearGradient>
<linearGradient id="paint11_linear_1_1028" x1="519.242" y1="-566.511" x2="519.242" y2="1081.16" gradientUnits="userSpaceOnUse">
<stop stop-color="#0FC97E"/>
<stop offset="1" stop-color="#3064E9"/>
</linearGradient>
<linearGradient id="paint12_linear_1_1028" x1="605.347" y1="-630.774" x2="605.347" y2="842.505" gradientUnits="userSpaceOnUse">
<stop stop-color="#0FC97E"/>
<stop offset="1" stop-color="#3064E9"/>
</linearGradient>
<linearGradient id="paint13_linear_1_1028" x1="695.429" y1="-682.32" x2="695.429" y2="533.452" gradientUnits="userSpaceOnUse">
<stop stop-color="#0FC97E"/>
<stop offset="1" stop-color="#3064E9"/>
</linearGradient>
</defs>
</svg>
